<svg xmlns="http://www.w3.org/2000/svg" xmlns:xlink="http://www.w3.org/1999/xlink" version="1.1" x="0px" y="0px" viewBox="0 0 1664 1664" enable-background="new 0 0 1664 1664" xml:space="preserve"><circle cx="207.434" cy="457.517" r="124.234"></circle><path d="M1532.927,1223.456l-454.854-14.993l29.985-464.689c0.532-8.237-2.03-27.473-2.396-29.286  c-19.236-96.146-103.467-119.126-154.536-98.708C684.37,722.492,526.34,534.776,391.04,524.16  c-42.632-3.345-82.418,24.86-87.543,54.28c-2.113,4.875,20.75,343.283,20.75,343.283c0.25,3.811,13.495,382.204,13.495,382.204  c0.599,14.91,14.51,26.674,30.984,26.674c16.474,0,30.202-11.831,30.801-26.74c0,0,12.563-378.31,12.813-382.121l13.828-205.304  l1.847,2.08c38.838,44.212,73.882,82.068,125.515,65.728c4.693-1.481,9.501-2.812,14.394-3.395l25.526-2.995  c6.623-0.782,13.262-0.133,19.585,1.98c16.207,5.425,53.681,16.607,108.36,24.86c67.126,10.134,117.162-4.476,176.65,18.703  l29.053,452.192c1.764,27.456,26.158,48.705,57.724,54.346c7.505,4.426,550.085-11.265,550.085-11.265  c28.771-0.948,50.869-27.489,44.961-57.258C1575.492,1239.48,1555.274,1224.205,1532.927,1223.456z"></path></svg>