<svg xmlns="http://www.w3.org/2000/svg" xmlns:xlink="http://www.w3.org/1999/xlink" version="1.1" x="0px" y="0px" viewBox="0 0 500 500" enable-background="new 0 0 500 500" xml:space="preserve"><circle cx="173.8" cy="55.3" r="30.3"></circle><path d="M403.9,127.6c-3.4-5.6-11.3-7.1-17.7-3.4l-10.4,5.9c-0.7-3.1-3.5-5.5-6.9-5.8c0,0-86.7-8.3-87.6-8.4L215,104.1  c-1.4-0.2-56.9-4.6-74.9-10.3c-5.4-1.7-11.8,0.7-15,7.3l-29.1,60.6c-0.8,1.6-1.9,7.6-1.4,9c0.5,2.8,2.5,4.6,4.4,6.5  c2.5,2.4,46.6,45.5,46.6,45.5c0.1,0.1,0.3,0.1,0.4,0.3c0,0-1.7,20.9-0.9,25.1L166,358.3c0.4,2.2,16.7,104.9,16.7,104.9  c1.1,7.3,7.1,12.6,13.6,11.8c6.5-0.8,11.2-7.2,10.5-14.6c0,0-6.8-103.1-7.2-107l-8.9-84.1c-0.2-1.8,1.4-3.4,3.2-3.1  c5,0.7,10.7-0.4,16-3.4l97.6-55.4c3.8-2.2,91.5-62.4,91.5-62.4C405.2,140.9,407.4,133.2,403.9,127.6z M116.4,166.8l24.8-43.2  l5.3,49.8c0.9,8.5,0.8,28.2,0.8,28.2L116.4,166.8z M218.4,211.4l-3.6-6c-10.5-17.6-14.4-38.5-10.8-58.7l3.4-19.4  c6.4,3.1,71.7,8.1,71.7,8.1c2.4,0.2,82.3,3.3,82.3,3.3s-67.2,37.6-68.9,38.4L218.4,211.4z"></path></svg>