<svg xmlns="http://www.w3.org/2000/svg" xmlns:xlink="http://www.w3.org/1999/xlink" version="1.1" x="0px" y="0px" viewBox="0 0 200 200" enable-background="new 0 0 200 200" xml:space="preserve"><path d="M127.014,62.678c-4.936-12.604-32.13-52.184-56.874-52.674c-10.898-0.216-19.868,8.24-21.032,18.83l6.3,86.988l6.15,64.742  c0.42,4.424,4.136,7.804,8.582,7.804c4.912,0,8.832-4.1,8.612-9.008l-3.042-67.616l7.672-60.278  c7.502,7.516,12.95,16.852,15.736,27.136l9.5,35.074c0,0-21.264,24.876-21.742,27.172l-8.478,42.884  c-0.608,2.914,1.348,5.742,4.29,6.204c2.582,0.404,5.062-1.168,5.8-3.674l11.476-39.302c0.92-0.344,32.184-35.072,32.184-35.072  c1.962-2.224,3.042-10.528,3.908-14.076C137.372,92.394,130.32,71.124,127.014,62.678z"></path><path d="M135.582,110.306c-0.478,1.332-1.022,2.398-1.692,3.156c-8.578,9.528-14.884,16.49-19.538,21.59  c2.584,7.306,9.534,12.548,17.724,12.548c10.392,0,18.816-8.424,18.816-18.816C150.894,119.59,144.298,111.95,135.582,110.306z"></path></svg>