<svg xmlns="http://www.w3.org/2000/svg" xmlns:xlink="http://www.w3.org/1999/xlink" version="1.1" x="0px" y="0px" viewBox="0 0 100 100" enable-background="new 0 0 100 100" xml:space="preserve"><g><path d="M77.979,39.099l0.763-12.245c0.21-3.375-1.239-6.64-3.883-8.749l-9.426-7.517c-2.764-2.204-6.304-3.194-9.811-2.743   L43.762,9.372c-2.549,0.328-5.01,1.144-7.25,2.405c0,0-4.495,2.485-6.717,3.748c-0.78,0.443-1.466,1.027-2.032,1.723L6.234,43.751   c-1.172,1.154-1.503,2.8-1.018,4.244c-0.073,0.545,4.84,40.008,4.84,40.008c0.321,2.531,1.96,4.412,3.703,4.248   c1.743-0.164,2.96-2.313,2.748-4.855c0,0-3.21-38.524-3.215-38.566l18.226-15.834c0.892-0.775,2.062-1.152,3.239-1.044h0   c3.297,0.303,6.581-0.705,9.141-2.805l5.404-4.435c3.406-2.795,8.329-2.733,11.664,0.147l4.238,3.66l3.536,9.17L80.25,60.954   c0.161,0.326,1.845,27.982,1.845,27.982c0.081,1.78,1.248,3.171,2.636,3.141c1.388-0.029,2.495-1.468,2.501-3.25l0.092-26.948   C87.327,60.765,77.979,39.099,77.979,39.099z"></path><g><path d="M85.22,37.163c-2.161,0-4.152,0.71-5.771,1.897c3.822,8.865,6.062,14.24,7.376,17.522C91.461,55.814,95,51.797,95,46.944    C95,41.542,90.621,37.163,85.22,37.163z"></path></g></g></svg>