<svg xmlns="http://www.w3.org/2000/svg" xmlns:xlink="http://www.w3.org/1999/xlink" version="1.1" x="0px" y="0px" viewBox="0 0 100 100" enable-background="new 0 0 100 100" xml:space="preserve"><circle cx="86.402" cy="25.19" r="8.082"></circle><path d="M94.851,45.395c-0.338-2.193-2.649-6.171-4.032-7.906c-1.482-1.86-8.758-2.737-9.588-0.509  c-0.77,2.068-2.154,6.782-2.031,8.59c0.258,3.795,2.058,13.705-4.682,14.479c-0.809,0.093-5.111,1.277-5.111,1.277  c-2.409,0.292-4.603,1.53-6.099,3.442l-2.469,3.157l-18.013,3.097c-0.64,0.11-33.705,4.497-33.705,4.497  c-2.471,0.308-4.292,1.957-4.11,3.722c0.182,1.766,2.301,3.008,4.783,2.805c0,0,33.623-2.815,34.189-2.879  c0,0,23.102,0.15,30.294-2.293c1.416-0.481,5.006-3.276,5.006-3.276c0.846-0.554,1.665-1.143,2.47-1.75l-0.513,7.6  c-0.121,1.786,0.902,3.308,2.308,3.436s2.687-1.185,2.89-2.963l1.579-13.78c0.885-0.674,2.931-5.292,5.362-10.459  C94.851,52.559,95.258,48.036,94.851,45.395z"></path></svg>