<svg xmlns="http://www.w3.org/2000/svg" xmlns:xlink="http://www.w3.org/1999/xlink" version="1.1" x="0px" y="0px" viewBox="-429 231 100 100" enable-background="new -429 231 100 100" xml:space="preserve"><circle cx="-387.352" cy="240.971" r="6.773"></circle><path d="M-387.132,311.522c0.485,0.915,1.656,1.208,2.514,0.629l2.434-6.874l-4.577,4.138  C-387.352,309.95-387.505,310.818-387.132,311.522z"></path><path d="M-375.538,295.952l-12.458-3.391l7.416,11.29l-7.48,21.12c-0.61,1.721,0.667,3.528,2.493,3.528  c1.058,0,2.014-0.631,2.431-1.603l9.845-23.585L-375.538,295.952z"></path><path d="M-369.19,236.173c-0.864-0.23-1.758,0.251-2.044,1.098l-5.112,11.495c-0.993-1.423-2.694-1.034-4.398-0.709l-5.568,1.27  l5.377,0.766c0.941,1.805,1.47,2.434,4.023,3.416c1.683,0.647,4.191,1.083,5.097-2.672c1.431-5.927,3.836-12.616,3.836-12.616  C-367.756,237.322-368.295,236.411-369.19,236.173z"></path><path d="M-372,235.126v1.491c0,0.083-3.289,7.302-3.289,7.302l-0.081-8.783c0-0.901,0.773-1.636,1.674-1.636  S-372,234.235-372,235.126z"></path><path d="M-365.476,299.183l-6.929,4.692l0.218-0.507l-1.709-5.582l2.092-1.885l-16.126-4.392c-5.137-1.398-7.933-6.939-6.007-11.91  l1.792-3.335c1.647-3.397,2.071-7.271,1.119-10.947l-2.796-11.154c0-2.579,2.102-4.567,4.65-4.226l7.726,1.108c0,0,0,0.01,0.01,0.01  c0.953,1.719,1.626,2.444,4.153,3.418c0.87,0.342,1.647,0.507,2.361,0.507c0.901,0,1.978-0.269,2.848-1.253  c-0.083,1.761-1.502,3.117-3.273,2.952l-3.055-0.3l-1.408,26.948l15.11,8.648C-362.763,294.129-363.125,297.485-365.476,299.183z"></path><g display="none"><g display="inline"><path d="M-364.694,291.973l-14.62-8.397l-0.435-1.423l1.349-25.777l3.186,0.298c1.264,0.118,2.684-0.616,3.37-2.846l3.868-15.612    c0.223-0.899-0.316-1.81-1.211-2.048c-0.864-0.23-1.678,0.251-1.964,1.098l-0.849,2.755v-4.898c0-0.897-0.807-1.623-1.703-1.623    c-0.901,0-1.67,0.734-1.663,1.636l0.093,14.173l-0.56,1.631l-0.471-1.082c-0.993-1.423-2.732-2.13-4.437-1.805    c0,0-6.2,1.804-8.335,1.901c-2.561,0.117-4.747,1.633-4.747,4.201l2.798,11.158c0.95,3.672,0.527,7.547-1.12,10.946l-1.8,3.341    c-1.796,4.644,0.534,9.785,5.044,11.577l8.313,12.658l-6.172,5.579c-0.592,0.535-0.745,1.403-0.372,2.108    c0.485,0.917,1.658,1.209,2.517,0.627l1.443-0.978l-4.888,13.801c-0.61,1.722,0.667,3.528,2.493,3.528    c1.058,0,2.015-0.631,2.431-1.603l9.514-22.198l8.148-5.522C-363.121,297.485-362.758,294.127-364.694,291.973z M-374.742,298.55    l-1.151-3.77l4.09,1.113L-374.742,298.55z"></path><circle cx="-387.35" cy="240.966" r="6.773"></circle></g></g></svg>