<svg xmlns="http://www.w3.org/2000/svg" xmlns:xlink="http://www.w3.org/1999/xlink" version="1.1" x="0px" y="0px" viewBox="0 0 200 200" enable-background="new 0 0 200 200" xml:space="preserve"><path d="M183.426,33.296c-1.292-2.724-4.582-3.834-7.226-2.422l-73.764,55.49c-1.958-6.58-6.182-19.282-7.716-23.198  c-4.986-12.714-32.436-52.658-57.402-53.162c-11-0.222-20.042,8.316-21.234,19.012l6.358,87.778l6.216,65.334  c0.424,4.46,4.178,7.872,8.66,7.872c4.966,0,8.922-4.138,8.7-9.082l-3.088-68.24l7.75-60.832  c5.162,5.176,14.916,31.714,20.596,48.064c2.784,8.014,10.598,13.172,19.058,12.55c6.344-0.468,17.822-2.21,24.63-9.004  c16.276-16.244,66.524-63.518,66.524-63.518C183.708,38.524,184.536,35.678,183.426,33.296z"></path><circle cx="82.756" cy="131.796" r="18.334"></circle></svg>