<svg xmlns="http://www.w3.org/2000/svg" xmlns:xlink="http://www.w3.org/1999/xlink" version="1.1" x="0px" y="0px" viewBox="0 0 100 100" enable-background="new 0 0 100 100" xml:space="preserve"><path d="M94.597,78.001c0,0-11.501-28.628-14.028-30.066c-2.036-1.159-13.042-28.205-12.93-28.457  c-0.896-1.801-3.979-4.439-7.899-4.439c-8.247,0-13.083,6.797-13.844,7.585l-15.09,22.37c-0.374,0.563-1.682,2.387-1.979,2.918  c0,0-10.386,17.994-10.571,18.154L5.835,81.032c-0.717,0.622-1.049,1.638-0.687,2.516c0.601,1.457,2.323,1.821,3.439,0.931  c0,0,13.706-14.391,14.082-14.887l12.546-16.581c2.632,0.639,7.344-0.932,9.224-3.874L53.3,33.672  c0.13-0.226,2.562-2.757,3.702-4.44c0.331-0.49,1.049-0.483,1.368,0.015l14.761,23.094c1.828,1.309,16.86,28.211,16.86,28.211  c1.144,2.058,2.451,1.939,3.655,1.124v0C94.757,80.923,95.499,79.985,94.597,78.001z"></path><path d="M33.963,56.617l-9.245,12.219c1.393,1.363,3.297,2.205,5.4,2.205c4.268,0,7.727-3.46,7.727-7.727  C37.845,60.447,36.281,57.951,33.963,56.617z"></path></svg>