<svg xmlns="http://www.w3.org/2000/svg" xmlns:xlink="http://www.w3.org/1999/xlink" version="1.1" x="0px" y="0px" viewBox="40 -40 100 100" enable-background="new 40 -40 100 100" xml:space="preserve"><circle cx="130.84" cy="11.582" r="6.66"></circle><path d="M125.121,36.072l-2.677-19.349l-0.366-2.81c-0.179-1.377-0.045-2.776,0.392-4.094l1.851-5.572  c0.17-0.51,0.237-1.049,0.199-1.586l-1.334-18.925h-0.006l0.519-17.294c0.022-0.73-0.515-1.357-1.239-1.448l0,0  c-0.793-0.1-1.512,0.477-1.586,1.273l-1.636,17.468h-0.028l-0.304,15.136c-2.271,0.176-6.503,0.366-9.916-1.118  c-4.914-2.137-7.818-5.942-9.686-6.346c-7.214-1.564-29.508,1.082-29.508,1.082C65.74-9.562,49.791-8.63,44.339-8.242  C43.302-8.168,42.5-7.304,42.5-6.265l0,0c0,1.019,0.773,1.872,1.787,1.972c0,0,24.699,2.45,26.395,2.588  c3.86,0.313,14.386,1.33,17.149,1.598c0.383,0.037,0.668,0.361,0.664,0.746L88.2,27.45c-0.008,0.013-0.016,0.024-0.023,0.038  c-2.075,3.906-0.947,20.171-0.492,25.711c0.086,1.045,0.972,1.84,2.02,1.817l0,0c1.011-0.022,1.843-0.801,1.932-1.809l2.096-23.839  l4.765-22.289c4.141,2.536,12.31,9.652,13.269,10.227c1.068,0.641,5.036,0.604,5.036,0.604l4.455,18.979l5.269,16.942  c0.229,0.737,1.008,1.153,1.748,0.935l0,0c0.722-0.213,1.149-0.956,0.972-1.687l-4.133-17.004L125.121,36.072z"></path></svg>