<svg xmlns="http://www.w3.org/2000/svg" xmlns:xlink="http://www.w3.org/1999/xlink" version="1.1" x="0px" y="0px" viewBox="0 0 1664 1664" enable-background="new 0 0 1664 1664" xml:space="preserve"><path d="M764.907,383.319c0,48.955,42.881,105.78,67.192,105.78c24.294,0,67.192-56.842,67.192-105.78s-30.085-71.485-67.192-71.485  C794.993,311.85,764.907,334.364,764.907,383.319z"></path><path d="M963.539,83.533c-0.349-0.05-0.632-0.216-0.982-0.25l0,0l0,0c-11.315-0.865-21.449,6.34-22.481,16.124l-24.71,226.953  c-0.516,4.975-19.386,127.629-30.884,178.414c0,0.033-0.05,0.05-0.067,0.1c-0.566,1.464-11.232,1.065-15.692,0.716  c-10.982-1.198-25.559-6.39-36.375-6.39c-0.033,0-0.067,0-0.1,0s-0.067,0-0.1,0c-10.816,0-25.393,5.192-36.375,6.39  c-4.46,0.349-15.142,0.216-15.692-1.248c-0.017-0.033-0.05,0.216-0.067,0.166c-11.498-50.785-30.368-173.306-30.884-178.281  L722.908,99.341c-1.032-9.768-7.388-16.94-24.028-16.091V83.2c0,0,1.032,0,1.015,0c-0.349,0,0.399,0.25,0.067,0.283  c-10.816,1.281-18.737,9.518-18.237,18.986c0,0,7.787,229.199,7.954,231.08l21.016,222.327  c3.594,18.87,17.356,109.791,19.236,132.271c3.777,43.996,2.18,74.198-0.732,100.073c-2.346,19.585-14.71,72.584-14.71,84.165  l15.275,367.295c0.166,0.682,19.768,309.637,19.768,309.637c2.063,19.036,18.737,32.764,36.758,31.4  c18.005-1.548,32.099-17.672,31.233-36.708l-5.108-309.304l19.852-315.811l19.852,315.811l-5.142,309.304  c-0.865,19.036,13.212,35.16,31.217,36.708c18.005,1.365,34.661-12.347,36.708-31.4c0,0,19.519-308.955,19.685-309.637  l12.863-367.278c0-11.581-9.818-64.58-12.164-84.165c-2.912-25.875-4.526-56.093-0.749-100.073  c1.88-22.481,15.542-113.385,19.153-132.255l20.883-222.327c0.166-1.88,7.704-231.08,7.704-231.08  C982.792,93.034,974.355,84.831,963.539,83.533z"></path></svg>