<svg xmlns="http://www.w3.org/2000/svg" xmlns:xlink="http://www.w3.org/1999/xlink" version="1.1" x="0px" y="0px" viewBox="-429 231 100 100" enable-background="new -429 231 100 100" xml:space="preserve"><g display="none"><circle display="inline" cx="-380.977" cy="262.718" r="8.638"></circle><path display="inline" d="M-383.274,315.469l-10.282-16.702l4.606-22.933l-3.35-0.792c-1.669-0.254-3.229,0.893-3.484,2.562   l-3.214,21.081c-0.084,0.549,0.051,1.11,0.375,1.561l12.425,17.311c0.633,0.869,1.899,1.002,2.701,0.232   C-382.874,317.191-382.821,316.205-383.274,315.469z"></path><path display="inline" d="M-377.723,315.469l10.283-16.703l-4.606-22.933l3.35-0.792c1.669-0.254,3.229,0.893,3.484,2.562   l3.212,21.082c0.084,0.549-0.051,1.11-0.375,1.561l-12.425,17.311c-0.633,0.869-1.899,1.002-2.701,0.232   C-378.123,317.191-378.176,316.205-377.723,315.469z"></path><path display="inline" d="M-415.377,315.203h33.576l0.166-9.635l-33.881,1.028c-2.322,0.075-4.165,1.979-4.165,4.302l0,0   C-419.681,313.276-417.754,315.203-415.377,315.203z"></path><path display="inline" d="M-378.501,319.694h28.172c3.624,0,6.561-2.938,6.561-6.561v-3.405l-35.078,5.707   c-1.037,0.169-1.799,1.065-1.799,2.116l0,0C-380.645,318.735-379.685,319.694-378.501,319.694z"></path><path display="inline" d="M-348.072,315.203h-33.576l-0.166-9.635l33.881,1.028c2.322,0.075,4.165,1.979,4.165,4.302l0,0   C-343.767,313.276-345.694,315.203-348.072,315.203z"></path><path display="inline" d="M-384.948,319.694h-28.172c-3.624,0-6.561-2.938-6.561-6.561v-3.405l35.078,5.707   c1.037,0.169,1.799,1.065,1.799,2.116l0,0C-382.804,318.735-383.764,319.694-384.948,319.694z"></path><path display="inline" d="M-371.834,300.044l2.044,7.956h-22.6l2.142-7.931c0.333-1.234,0.356-2.531,0.066-3.776l-4.748-20.383   l5.99-1.92c5.16-1.67,10.72-1.69,15.9-0.05l6.04,1.9l-4.868,20.488C-372.158,297.551-372.147,298.826-371.834,300.044z"></path></g><circle cx="-377.733" cy="250.602" r="10.794"></circle><path d="M-336.514,307.932l-23.199-3.204l5.208-7.23c0.405-0.564,0.582-1.265,0.478-1.951l-4.013-26.344  c-0.539-3.586-7.135-4.024-9.776-4.578c-6.645-1.394-13.341-1.762-19.868,0.062c-1.886,0.527-7.9,1.71-8.552,4.516l-4.016,26.343  c-0.105,0.687,0.063,1.387,0.468,1.951l5.124,7.139l-26.233,3.296c-5.33,1.035-5.545,3.586-5.604,5.578  c-0.134,4.526,4.07,8.49,8.598,8.49h35.204c1.479,0,2.679-1.299,2.679-2.779c0-0.377-0.266-2.33-1.88-2.799  c-0.957-0.278-2.342-0.498-2.342-0.498l10.776-0.002l-1.607,0.486c-1.296,0.211-2.249,1.465-2.249,2.778  c0,1.479,1.199,2.813,2.679,2.813h35.204c4.528,0,8.295-3.978,7.909-8.49C-331.688,311.629-332.289,309.181-336.514,307.932z   M-389.318,297.277l-0.955,3.536l-3.179-5.165l2.286-11.38l1.931,8.291C-388.874,294.114-388.902,295.735-389.318,297.277z   M-364.981,302.411l-1.327-5.166c-0.391-1.521-0.405-3.115-0.042-4.643l2.666-11.222l2.866,14.269L-364.981,302.411z"></path></svg>