<svg xmlns="http://www.w3.org/2000/svg" xmlns:xlink="http://www.w3.org/1999/xlink" version="1.1" x="0px" y="0px" viewBox="0 0 100 100" enable-background="new 0 0 100 100" xml:space="preserve"><circle cx="-305.034" cy="-448.585" r="5.885"></circle><path d="M-281.782-450.214c-0.541-0.715-1.409-0.996-1.937-0.617l-10.379,7.444c-0.117,0.084-12.465,3.966-12.465,3.966  c-1.156-1.323-2.978-2.991-5.729-5.396c-0.052-0.061-0.12-0.122-0.208-0.182c-0.63-1.04-10.194-7.658-10.374-7.804l-9.916-8.05  c-0.071-0.057-0.15-0.099-0.234-0.132l-1.292-11.974c-0.131-1.214-1.161-2.104-2.294-2.037c-1.134,0.067-2.051,1.073-2.037,2.294  l0.229,20.785c0.002,0.213,5.939,19.113,5.939,19.113c0.219,0.709,0.618,1.308,1.112,1.787c-0.005,0.015-0.011,0.029-0.016,0.044  c-1.957,0.505-3.145,2.584-2.695,4.69c0,0,2.748,18.113,2.752,18.124c0.013,0.208,3.033,21.197,3.033,21.197  c0.175,1.208,1.237,2.061,2.367,1.952c1.13-0.109,2.01-1.148,1.952-2.367l-0.991-20.763c-0.037-0.777-0.443-13.082-0.443-13.082  c16.451-0.686,20.372-12.653,20.372-12.653c0.011-0.047,0.018-0.089,0.028-0.136c0,0,13.114-6.045,13.311-6.202l9.981-7.968  C-281.206-448.587-281.24-449.499-281.782-450.214z M-325.478-436.903c-0.255-0.172-6.564-14.097-6.564-14.097  c-0.006-0.013-0.019-0.022-0.026-0.034c0.025-0.41-0.431-5.086-0.431-5.086l6.305,5.682l0,0l8.911,8.084  c-0.276,1.707-0.314,3.92,0.04,6.68C-317.243-435.674-317.924-431.809-325.478-436.903z"></path><path d="M-179.107-456.965c0,2.942-2.577,6.357-4.038,6.357s-4.038-3.416-4.038-6.357s1.808-4.296,4.038-4.296  S-179.107-459.907-179.107-456.965z"></path><path d="M-175.323-474.996c-0.68-0.052-1.289,0.381-1.351,0.969l-1.485,13.639c-0.031,0.299-1.041,8.371-1.856,10.722  c-0.031,0.093-0.134,0.144-0.278,0.175c-0.165,0.031-0.402,0.021-0.67,0c-0.66-0.072-1.536-0.258-2.186-0.258  c-0.66,0-1.577,0.196-2.258,0.268c-0.247,0.021-0.464,0.031-0.619,0c-0.155-0.021-0.247-0.082-0.268-0.186  c-0.691-3.052-1.825-10.423-1.856-10.722l-1.485-13.639c-0.062-0.588-0.67-1.021-1.351-0.969c-0.68,0.052-1.216,0.567-1.186,1.155  c0,0,0.454,13.773,0.464,13.887l1.258,13.361c0.217,1.134,0.402,2.186,0.557,3.155c0.309,1.866,0.495,3.443,0.608,4.794  c0.381,4.443-0.127,6.567-0.416,9c-0.072,0.65-0.302,1.32-0.302,2.072v0.072c0,0,0.106,0,0.106,0.01  c-0.062,0.041-14.163,8.278-14.163,8.278c-0.649,0.361-0.938,1.175-0.876,2.093c0.021,1.546,0.392,3.309,2.444,3.217l17.928-1.289  l-0.216,9.258l-1.031,18.722c-0.052,1.144,0.794,2.113,1.876,2.206c1.082,0.082,2.083-0.742,2.206-1.887  c0,0,2.711-18.567,2.722-18.608l2.474-20.763c0-0.052-0.124-0.845-0.062-1.237c0.082-0.567,0.103-1.082,0.072-1.577  c0-0.113,0-0.237-0.021-0.351c0-0.072-0.01-0.144-0.021-0.216c-0.175-1.979-0.845-4.01-0.485-8.856  c0.103-1.33,0.278-2.866,0.557-4.68c0.165-1.041,0.361-2.175,0.608-3.412l1.268-13.361c0.01-0.113,0.474-13.887,0.474-13.887  C-174.107-474.429-174.653-474.944-175.323-474.996z M-184.467-419.439l-4.134-0.072l3.732-1.588c0.01-0.01,0.021-0.01,0.021-0.01  c0.134,0.031,0.278,0.072,0.423,0.093L-184.467-419.439z"></path><path d="M-25.849-445.925l-15.923-1.31c-0.176-0.014-1.194-0.498-1.674-0.728l-9.159-3.618c-0.167-0.052-1.87-0.857-2.629-0.712  c-8.894,1.694-14.568,0.979-17.248,0.365c-1.59-1.437-4.346-1.856-5.289-1.348c-3.859,2.08-15.693,2.734-15.996,2.89l-18.386-0.382  c-1.541-0.032-2.791,0.716-2.845,1.703c-0.054,0.981,1.092,1.857,2.617,2.002l19.028,1.802c0.22,0.07,12.698,0.621,12.698,0.621  l1.259,17.969c0.032,0.455,4.042,19.312,4.042,19.312c0.303,1.512,1.304,2.57,2.279,2.409c0.969-0.16,1.577-1.469,1.387-2.988  c0,0-2.177-18.591-2.167-18.794l0.822-16.997c7.256-0.359,16.862,4.14,20.746,0.45c0.503-0.478,0.787-1.366,0.875-2.401  c3.429,0.904,9.032,2.437,9.445,2.442l15.973,0.174C-24.763-443.05-24.63-445.824-25.849-445.925z"></path><path d="M-43.064-448.93l0.034,0.013l0.033,0.016c0.943,0.452,1.289,0.594,1.405,0.637l3.057,0.252  c0.075-0.375,0.116-0.763,0.116-1.16c0-3.255-2.639-5.894-5.894-5.894c-2.408,0-4.475,1.445-5.39,3.514L-43.064-448.93z"></path><path d="M82.183-389.299l-15.423-12.435l0.049-0.049l-11.268-10.028c1.329-10.044-12.083-2.136-3.952-24.317  c1.278-3.488-0.054-19.184-0.123-19.327l0.083-17.806c0.049-0.946-0.745-1.741-1.659-1.741c-0.793,0-1.489,0.602-1.586,1.414  l-2.081,17.266c-0.124,0.235-1.1,16.498-1.1,16.498c-1.984,1.774-4.915,2.274-5.895,4.374c-1.761,3.774,0.794,12.993,0.656,18.071  l-17.432,5.565c-0.691,0.423-1.204,1.12-1.363,1.963l-3.901,20.674c-0.207,1.092,0.63,2.177,1.741,2.177h1.251  c0.804,0,1.507-0.616,1.713-1.393l5.079-19.193l18.483-1c0,0,16.72,11.214,16.87,11.318l17.225,11.949  c0.913,0.633,2.176,0.279,2.629-0.735l0.509-1.143C83.017-387.932,82.809-388.795,82.183-389.299z"></path><path d="M44.217-443.744c0.345-5.658,0.554-8.834,0.691-10.624c-2.014,1.018-3.398,3.102-3.398,5.513  C41.51-446.73,42.584-444.856,44.217-443.744z"></path><path d="M53.23-446.13c0.406-0.823,0.64-1.746,0.64-2.726c0-1.196-0.345-2.308-0.933-3.254  C53.061-450.391,53.171-448.285,53.23-446.13z"></path><path d="M214.97-455.522c-0.215-0.903-1.525-1.378-2.983-1.082c0,0-18.15,3.838-18.583,4.174c0,0-17.558,0.026-17.756,0.065  c-3.733,0.677-8.791,0.514-11.795-0.01c0,0-16.695-3.186-16.761-3.194c-0.489-0.408-19.221-2.542-19.221-2.542  c-1.48-0.15-2.737,0.452-2.862,1.372c-0.121,0.894,0.871,1.788,2.287,2.063c0,0,18.269,3.851,18.705,3.995l14.535,4.819  c-2.58,7.137-4.785,15.331-4.427,22.006l-19.493,1.065c-2.614,0.143-3.924,2.267-3.68,4.554c0.608,5.693-2.213,22.795-2.213,22.795  c-0.16,1.646,0.993,3.105,2.576,3.258c1.534,0.149,2.918-0.655,3.139-2.243L139.212-414h19.402c0.425,0,11.052,0.107,11.56,0.372  l20.676,10.688c0.222,0.116,17.119,11.3,17.119,11.3c0.874,0.573,1.942,0.692,2.85,0.354c2.115-0.786,2.319-3.609,0.367-5.061  c0,0-16.046-12.471-16.672-12.887c0,0-18.947-12.469-19.355-12.528c-3.817-5.728-2.588-12.607,1.012-23.422  c0.255,0.032,17.717-2.224,17.717-2.224c0.645-0.085,19.009-5.836,19.009-5.836C214.28-453.657,215.178-454.645,214.97-455.522z"></path><circle cx="167.901" cy="-462.203" r="6.691"></circle><path d="M332.64-390.631c0,0-17.294-13.433-17.968-13.882c0,0-2.024-3.312-5.878-5.834c0,0-4.962-3.793-5.892-6.286  c-0.498-1.334-0.095-9.291-0.29-14.737c-0.016-0.434-0.082-0.861-0.186-1.283l-2.976-12.123c-0.363-1.477-0.071-3.038,0.8-4.284  l7.844-11.223c0.037-0.034,0.084-0.051,0.118-0.09l10.744-12.289c0.501-0.573,0.47-1.43-0.069-1.949  c-0.533-0.514-1.38-0.518-1.935-0.01l-12.048,11.034c-0.308,0.282-10.935,12.569-10.935,12.569s-7.113,4.933-9.108,6.999  c-2.348,2.433-7.855,11.011-7.856,11.013c-2.045,2.401-3.055,7.052-3.725,12.742l-21.008,1.148  c-2.818,0.154-4.229,2.444-3.966,4.909c0.655,6.136-2.385,24.567-2.385,24.567c-0.172,1.774,1.071,3.346,2.776,3.511  c1.653,0.16,3.145-0.953,3.383-2.664l2.99-21.34h20.911c0.458,0,11.911,0.362,12.458,0.648l22.283,11.642  c0.24,0.125,18.45,12.24,18.45,12.24c0.942,0.617,2.092,0.776,3.072,0.413C334.523-386.039,334.744-389.067,332.64-390.631z   M289.951-427.713c1.572-1.458,4.205-1.659,5.683-1.643c0.621,0.006,1.128,0.488,1.177,1.106l0.851,10.677  c0.033,0.41,0.07,2.009,0.07,2.009c-2.884-1.864-3.808-2.362-3.92-2.447C292.077-419.321,286.667-424.667,289.951-427.713z"></path><circle cx="309.973" cy="-442.033" r="7.07"></circle><path d="M-265.403-281.999c0,0-11.501-28.628-14.028-30.066c-2.036-1.159-13.042-28.205-12.93-28.457  c-0.896-1.801-3.979-4.439-7.899-4.439c-8.247,0-13.083,6.797-13.844,7.585l-15.09,22.37c-0.374,0.563-1.682,2.387-1.979,2.918  c0,0-10.386,17.994-10.571,18.154l-12.421,14.966c-0.717,0.622-1.049,1.638-0.687,2.516c0.601,1.457,2.323,1.821,3.439,0.931  c0,0,13.706-14.391,14.082-14.887l12.546-16.581c2.632,0.639,7.344-0.932,9.224-3.874l8.862-15.465  c0.13-0.226,2.562-2.757,3.702-4.44c0.331-0.49,1.049-0.483,1.368,0.015l14.761,23.094c1.828,1.309,16.86,28.211,16.86,28.211  c1.144,2.058,2.451,1.939,3.655,1.124v0C-265.243-279.077-264.501-280.015-265.403-281.999z"></path><path d="M-326.037-303.383l-9.245,12.219c1.393,1.362,3.297,2.205,5.4,2.205c4.268,0,7.727-3.46,7.727-7.727  C-322.155-299.553-323.719-302.049-326.037-303.383z"></path><circle cx="-191.551" cy="-325.808" r="5.097"></circle><path d="M-145.009-292.198c-0.119-0.855-0.892-1.472-1.753-1.523c0,0-15.678-1.939-20.864-1.238  c-0.385,0.052-9.554-1.74-14.704-2.756l-0.065,6.918c-0.001,0.124-0.023,0.242-0.04,0.361c6.795,0.457,14.557,0.395,14.901,0.183  c5.266-0.916,20.76,0.085,20.76,0.085C-145.706-290.163-144.856-291.101-145.009-292.198z"></path><path d="M-183.487-304.874l-3.004-10.538c-0.062-0.216-0.836-1.772-1.505-1.947l-3.44-0.902c-2.966-0.018-5.581,4.129-5.581,4.129  c-1.199,1.677-1.983,3.686-1.983,5.747v10.151c0,0.643-0.185,1.177-0.827,1.223c0,0-7.361,0.501-11.926,0.852  c-1.638,0.126-20.198,1.219-21.635,1.264c-0.938,0.056-1.642,0.832-1.642,1.772c0,0.983,1.119,1.792,2.102,1.788  c0,0,15.536,0.431,21.205-0.193c4.017-0.442,12.12,1.666,16.128,1.152c1.865-0.239,4.291-1.252,5.601-0.964  c0.609,0.134,1.309,0.255,2.07,0.364l0.092-9.723c-1.531-2.378-2.262-5.542-1.539-8.023c0,0,2.452,5.57,2.598,5.738l-0.114,12.146  c-0.009,0.954,0.757,1.735,1.711,1.744c0.954,0.009,1.735-0.757,1.744-1.711l0.124-13.131  C-183.306-304.176-183.462-304.786-183.487-304.874z"></path><path d="M-26.677-295.408l-19.909-10.572c-0.37-0.197-17.374-9.922-17.483-9.977c-0.004-0.01-0.005-0.021-0.008-0.031  c-0.921-2.535-3.629-4.374-6.844-4.374c-0.44,0-10.645-3.273-16.145-5.243c-2.596-0.93-5.33-1.404-8.087-1.404h-1.898  c-1.865,0-3.434,1.399-3.646,3.252c0,0,0.944,17.482,0.954,17.541l0.504,15.587c0.033,1.03,0.811,1.847,1.773,1.863h0  c1.002,0.017,1.833-0.84,1.855-1.913l0.569-16.529c0.007-0.342,0.054-7.794,0.054-7.794l25.588,6.67h0.013  c0.436,0,19.453,8.139,19.795,8.298l20.439,9.524c1.524,0.71,3.279,0.172,3.919-1.202C-24.62-293.031-25.253-294.652-26.677-295.408  z"></path><circle cx="-108.885" cy="-325.12" r="6.115"></circle><circle cx="11.971" cy="-309.395" r="6.971"></circle><path d="M94.207-271.99c0.898-0.936,1.061-2.27,0.348-2.995L80.364-289.43c-0.477-0.486-18.383-18.341-19.1-18.337l-20.58-8.786  c-1.842-0.786-3.825-1.191-5.828-1.189l-7.2,0.007l-1.977-14.961c-0.04-0.354-4.996-17.716-4.996-17.716  c-0.407-1.302-1.506-2.112-2.523-1.858c-1.074,0.268-1.661,1.619-1.312,3.018c0,0,4.414,16.812,4.427,17.04  c0,0,0.726,17.534,0.726,18.595v6.998c0,1.813,1.551,18.788,1.551,18.788c-0.01,0.258-4.456,17.081-4.456,17.081  c-0.349,1.399,0.202,2.751,1.276,3.018c1.017,0.254,2.098-0.556,2.504-1.858c0,0,4.904-17.331,4.934-17.653l0.284-15.336  l2.623-0.023c3.161-0.058,6.249,0.939,8.78,2.834l9.838,7.368c0.2,0.608,22.068,13.479,22.471,13.732l17.159,10.753  c0.862,0.54,2.129,0.094,2.85-0.984h0c0.491-0.734,0.586-1.577,0.354-2.235C92.844-271.076,93.617-271.374,94.207-271.99z   M73.446-284.195c-0.014-0.012-0.024-0.027-0.038-0.039L57.3-298.011l0.509-0.764l17.287,12.488  c0.13,0.094,12.527,11.516,12.527,11.516S74.04-284.203,73.446-284.195z"></path><circle cx="136.818" cy="-305.134" r="6.699"></circle><path d="M209.3-268.982c0,0-12.877-16.845-13.187-17.031c-0.057-0.075-0.106-0.153-0.171-0.224l-15.101-17.621  c-1.156-1.244,3.51-2.658-0.596-8.028l-11.507-20.77c-0.101-0.182-9.528-20.615-9.528-20.615c-0.655-1.429-2.231-2.108-3.52-1.517  c-1.092,0.5-1.632,1.756-1.363,3.006c-0.228-0.275-0.508-0.47-0.828-0.532c-0.884-0.171-1.738,0.677-1.961,1.946l-3.304,16.987  c-0.106,0.602-3.231,21.388-3.231,22.021v10.304c0,1.305,0.579,14.78,0.579,14.78l-4.695,15.415c-0.379,1.02,0.12,2.113,1.005,2.442  c0.838,0.311,1.855-0.174,2.276-1.114c0,0,5.803-14.303,5.925-14.866c0,0,1.924-13.398,2.563-14.543l4.683-0.789l18.656,1.823  c0.001,0,0.002,0.001,0.003,0.002l15.92,15.48c0.011,0.011,0.025,0.018,0.036,0.029c0.109,0.257,13.538,16.371,13.538,16.371  c0.912,1.089,2.439,1.349,3.476,0.593C210.041-266.218,210.191-267.807,209.3-268.982z M156.915-314h-5.638  c0.048-1,1.892-17.946,1.892-17.946c0.055-0.529,1.719-17.66,1.719-17.66c0.03-0.242,0.026-0.438,0.008-0.667  c0,0,8.249,20.129,8.68,20.451l8.41,17.25L156.915-314z"></path><g><path d="M334.713-281.166c-0.281-0.418-0.738-0.642-1.24-0.68l-19.469-1.459l0.98-22.159c0.049-1.115-1.564-4.262-1.953-5.158   l-9.791-22.562c-8.016-12.011-17.707-9.631-22.327,0.148l-17.318,23.108c-0.401,0.535-17.315,23.185-17.315,23.185   c-1.448,1.88-1.696,4.091-0.561,5.01l0,0c1.075,0.87,3.04,0.289,4.567-1.349c0,0,19.828-21.355,20.06-21.725l19.671-19.552   c0.945-0.94,3.945-0.061,3.945-0.061c1.433,6.088,5.722,16.429,5.722,16.429c0.419,1.271,1.332,2.319,2.533,2.909l2.827,1.388   c0.876,0.43,1.888,0.572,2.839,0.455c0,0,1.118,22.624,1.118,22.83v0.038c0,0.908,0.854,1.482,1.762,1.489l22.593,0.191   C334.677-278.679,335.45-280.069,334.713-281.166z"></path><g><path d="M315.066-284.249l4.183,0.314c2.318-1.479,3.86-4.068,3.86-7.022c0-4.279-3.227-7.8-7.38-8.273L315.066-284.249z"></path><path d="M307.069-294.116c-0.4,0.975-0.624,2.04-0.624,3.159c0,1.362,0.333,2.643,0.913,3.778    C307.27-289.294,307.17-291.704,307.069-294.116z"></path></g></g><g><path d="M-299.76-147.196l-15.186-1.672l3.65-12.21c0.162-0.541,1.645-4.475,0.765-6.046c0,0-3.177-8.372-2.01-12.531l1.648-1.733   c0.77-0.81,1.216-1.874,1.24-2.991c0.129-5.936-0.288-24.276-0.277-25.181l0.278-22.887c0.024-1.996-0.953-2.523-1.958-2.552   c-0.944-0.027-1.58,0.27-1.746,2.127l-2.045,22.836c-0.088,0.977-4.168,29.471-4.168,29.471c-0.966,4.656-2.432,10.268-1.128,14.93   c0.294,1.049,0.974,1.949,1.838,2.613l1.971,1.512l-2.533,14.271c-0.185,1.042,0.51,2.037,1.552,2.222   c0.319,0.057,17.989-0.047,17.989-0.047c0.603,0,1.093-0.466,1.093-1.069C-298.787-146.69-299.206-147.135-299.76-147.196z"></path><circle cx="-305.789" cy="-157.128" r="5.146"></circle></g><path d="M-146.425-168.156l-22.998-10.57c-0.329-0.151-19.177-13.614-19.822-13.997l-25.949-15.424  c-1.954-1.161-5.894-0.558-6.54,1.62c-1.646,5.545,0.653,22.112,0.705,23.126l1.11,21.821c0.064,1.249,0.57,1.372,1.594,1.372  c1.058,0,2.142-0.185,2.167-1.479c0,0,0.159-22.231,0.159-22.408v-11.078l20.814,11.583c0.502,0.348,22.775,11.029,22.775,11.029  c0.21,0.097,24.081,8.915,24.081,8.915c1.229,0.457,2.615-0.136,3.122-1.345C-144.698-166.205-145.228-167.605-146.425-168.156z"></path><circle cx="-228.369" cy="-213.16" r="6.634"></circle><path d="M-222.283-183.335c-0.008-0.144-0.061-0.588-0.138-1.257c-0.302-2.614-0.97-5.594-1.197-8.555  c-0.014,0.13-0.381,0.259-0.381,0.4v25.581c0,1.328,1.127,2.434,2.325,2.718L-222.283-183.335z"></path><polygon points="-215,-193.048 -215,-188.755 -204.25,-186.536 "></polygon><path d="M-146.425-168.156l-22.998-10.57c-0.329-0.151-19.177-13.614-19.822-13.997l-25.949-15.424  c-1.954-1.161-5.894-0.558-6.54,1.62c-1.646,5.545,0.653,22.112,0.705,23.126l1.11,21.821c0.064,1.249,0.57,1.372,1.594,1.372  c1.058,0,2.142-0.185,2.167-1.479c0,0,0.159-22.231,0.159-22.408v-11.078l20.814,11.583c0.502,0.348,22.775,11.029,22.775,11.029  c0.21,0.097,24.081,8.915,24.081,8.915c1.229,0.457,2.615-0.136,3.122-1.345C-144.698-166.205-145.228-167.605-146.425-168.156z"></path><path d="M-70.756-163.51l-6.147-17.504c-0.176-0.501-3.016-17.278-3.016-17.278c-0.076-0.537-0.871-2.95-0.917-3.087  c-0.354-1.426-1.506-2.555-2.966-2.886c-2.818-0.639-5.772,0.194-7.837,2.224l-2.943,2.886c-2.316,2.27-3.741,5.293-4.027,8.532  l-0.217,2.532c-0.205,2.35-0.011,4.998,0.57,7.279l1.643,6.812h-15.023c-1.859,0-3.365,1.219-3.365,3.078  c0,0.319,1.312,2.993,3.125,3.712l11.692,5.632c1.677,0.662,3.456,0.09,3.992-1.245c0.468-1.175-0.171-2.596-1.506-3.394  l-0.878-0.511l9.593,0.794c0.502,0.034,3.023,1.23,4.152,1.355c0,0,3.411,0.352,7.7,0.809l-6.673-15.502  c-0.057-0.16-0.16-0.559-0.388-1.689c-1.392-1.255-2.213-3.069-2.213-4.985c0-1.015,0.217-1.996,0.662-2.909  c0.011-0.011,0.011-0.034,0.023-0.046l0.818-1.671c0.932,4.889,2.051,10.686,2.146,10.846l7.644,17.761  c0.615,1.591,2.079,2.507,3.269,2.047C-70.687-160.365-70.208-161.949-70.756-163.51z"></path><circle cx="-79.274" cy="-213.452" r="6.749"></circle><path d="M-25-165.163c0.011,1.665-1.232,3-4.141,3.011l-30.855,0.148c-0.217,0-4.506-0.433-9.456-0.958  c-0.046-0.308-0.125-0.616-0.228-0.924l-3.046-8.658c5.76,1.186,13.038,2.692,13.198,2.703l30.924,1.688  C-25.935-168.003-25-166.691-25-165.163z"></path><path d="M88.4-150.83l-6.75-34.45l1.45-0.25c0.24-0.25,0.43-0.56,0.56-0.91c0.34-0.95-6.46-29.21-6.46-29.21  c-0.44-1.99-1.19-3.67-3.2-3.61c-1.93,0.06-3.14,1.59-2.85,3.49l2.48,16.83c-1.05,0.9-1.65,2.46-1.43,4.16l0.18,1.45l-10.83-4.03  c-0.49-0.18-0.59-0.4-1.02-0.68c0,0-12.53-8.05-12.53-8.21v-20.74L58.53-223c-0.18-0.01-0.52-0.03-0.7-0.03  c-5.15,0-9.41,4.17-9.41,9.32c0,5.15,4.13,9.32,9.28,9.32c5.14,0,9.29-4.17,9.29-9.32c0-3.03-1.46-5.72-3.71-7.42l4.81,1.76  c1.68,0.62,3.45,0,4.06-1.41c0.64-1.48-0.24-3.29-1.97-4.03l-22.9-9.87c-1.39-0.6-2.89-0.32-3.76,0.57  c-0.87,0.42-1.54,1.38-1.71,2.57l-3.83,26.18c-1.37,0.78-2.52,1.93-3.28,3.35l-3.11,5.84c-1,1.87-1.26,4.04-0.72,6.09l6.67,25.7  l-20.64,0.71c-3.01,0.1-5.4,2.57-5.4,5.59c0,0.1,0.21,2.97,1.75,4.05c0.97,0.91,27.69,8.69,27.69,8.69  c2.91,0.87,5.77,0.01,6.27-1.88c0.05-0.19,0.07-0.38,0.07-0.57c0-1.5-1.43-3.06-3.6-3.85l-0.19-0.07c1.83-0.17,3.37-1.18,4.27-2.65  c0.21,0.09,35.24,9.13,35.24,9.13c1.16,0.3,2.32,0.05,3.24-0.57C87.85-146.53,88.84-148.59,88.4-150.83z M62.05-163.8  c-0.55-0.77-7.45-7.7-9.27-8.5c-1.96-0.86-3.8-5.8-3.8-5.8c-0.26-1.84,0.22-3.7,1.31-5.19l2.91-3.96c1.11-1.5,2.98-2.23,4.81-1.88  c2.7,0.53,10.11,2.63,15.38,3.91l3.56,28.35L62.05-163.8z"></path><circle cx="206.202" cy="-191.951" r="8.798"></circle><path d="M193.437-204.636l-8.749-12.632c-2.591-3.741-6.191-6.698-10.395-8.538l-6.299-2.758c-3.616-1.583-7.597-2.142-11.497-1.632  c-1.134,0.148-4.338,2.005-4.754,2.227c-2.542,1.357-4.265,5.605-2.729,8.157l13.358,19.993l-31.106-13.568  c-2.7-1.178-5.304-0.965-6.057,0.495c-0.82,1.589,0.837,4.076,3.701,5.553l40.809,21.051c1.253,0.646,2.523,0.976,3.633,1.027  l-7.97,6.554c-0.044,0.038-0.08,0.078-0.119,0.116c-0.654,0.594-1.088,1.477-1.109,2.482l-0.476,23.145  c-0.037,1.793,1.226,3.277,2.841,3.339c1.619,0.062,2.994-1.328,3.088-3.123l1.099-20.816c0.108-0.068,19.544-15.444,19.544-15.444  c0.706-0.559,3.982-4.064,4.547-5.683C195.963-198.031,195.459-201.717,193.437-204.636z M181.474-191.939l-3.045,2.504  c0.108-0.882-0.01-1.809-0.411-2.685l-2.538-5.55L181.474-191.939z"></path><circle cx="324.524" cy="-195.591" r="6.254"></circle><path d="M315.943-149.553l-5.559-7.398c0,0,2.321-10.761,2.83-13.153l2.652-14.421c0.226-1.335-1.966-18.188-2.079-18.907  l-1.666-11.108c-0.027-0.175-0.968-18.425-0.968-18.425c-0.066-1.168-0.797-2.062-1.634-2.034c-0.837,0.028-1.507,0.968-1.496,2.138  c0,0-0.067,18.577-0.043,18.839l0.502,11.254c0.006,0.063-16.328,4.078-20.671,5.791c-6.147,2.425-10.479,5.074-9.85,8.908  l-12.685,18.803l-15.253,19.573c-1.083,1.405-1.06,3.216,0.015,4.091c1.076,0.875,2.853,0.527,4.008-0.82  c0,0,15.971-17.95,16.113-18.089l13.869-14.236l13.073,14.429c0.194,0.226,8.851,10.898,8.851,10.898l-0.768,4.112  c-0.236,1.145,0.241,2.197,1.057,2.386c0.816,0.188,1.705-0.548,1.996-1.681l0.417-1.587l3.228,3.86  c1.138,1.36,2.911,1.73,3.997,0.869C316.964-146.324,317.008-148.135,315.943-149.553z M302.081-169.281l-11.039-17.574  c2.563-0.728,5.297-0.732,7.891,0.04l3.905,1.163c1.224,0.364,2.487,0.582,3.762,0.648l3.742,0.194  c0.063,0.003-1.391,15.347-1.201,14.234l-1.665,9.754C307.476-160.822,302.264-169.08,302.081-169.281z"></path><path d="M-160.598-28.896c0,0-11.072-16.145-11.154-16.253l-9.638-12.632l0.987-5.487c0.471-2.618,0.474-5.3,0.009-7.919  l-1.049-5.909c-0.305-1.716-1.308-3.229-2.771-4.178l-1.535-0.996c0,0,1.015-15.61,0.973-15.719l-0.497-15.936  c-0.019-0.599-0.51-1.075-1.109-1.075s-1.09,0.476-1.109,1.075l-0.487,15.611c-0.051,0.085-2.849,16.994-2.849,16.994  c-0.033,0.202,0.111,1.234,0.205,1.56c1.011,3.535,3.225,11.724,2.848,14.392c-0.148,1.05-1.138,2.342-2.192,3.453  c-1.22,1.286-2.069,2.857-2.47,4.551c-0.11,0.098-11.988,14.181-11.988,14.181c-0.387,0.172-14.441,13.225-14.441,13.225  c-1.239,1.161-1.556,2.836-0.708,3.742c0.776,0.828,2.277,0.734,3.497-0.221c0,0,15.701-12.12,16.011-12.409  c0,0,13.541-12.625,13.563-12.647l10.107,10.357c0.065,0.066,12.098,14.784,12.098,14.784c1.075,1.315,2.725,1.744,3.685,0.959  C-159.734-26.111-159.728-27.615-160.598-28.896z"></path><path d="M-184.395-86.126c1.485-0.96,2.474-2.623,2.474-4.523c0-1.649-0.757-3.108-1.924-4.096  C-183.955-92.922-184.13-90.204-184.395-86.126z"></path><path d="M-191.054-86.78c0.703-4.24,1.157-6.973,1.456-8.734c-1.829,0.862-3.104,2.709-3.104,4.865  C-192.702-89.128-192.067-87.76-191.054-86.78z"></path><circle cx="-304.563" cy="-98.994" r="5.079"></circle><path d="M-298.932-90.744c-2.497-1.856-10.709-3.521-12.465-1.065l-3.138,1.559l-0.127-1.802  c-0.065-0.925-4.425-20.795-4.425-20.795c-0.296-1.598-1.306-2.29-2.327-2.131c-1.021,0.159-1.69,1.114-1.485,2.726  c0,0,2.641,20.016,2.833,20.42l-0.011,4.334l-2.001,0.994c-1.655,0.728-1.009,2.754-0.859,3.127l2.831,7.016l-0.014,5.261  c-0.005,1.871,1.277,3.39,2.818,3.338l1.512-0.051c0.594-0.02,1.57,0.101,1.578,0.449l0.459,19.974  c0.009,0.386-0.291,19.742-0.291,19.742c-0.043,1.625,0.686,2.589,1.717,2.645c1.032,0.056,2.001-0.815,2.135-2.435  c0,0,1.869-19.369,1.896-19.869l0.984-18.385l3.704-7.526c0.984-2,3.719-9.581,4.508-12.639c0.845,0.174,1.753-0.213,2.056-1.016  C-296.168-89.187-298-90.052-298.932-90.744z M-310.551-87.167c-0.261,5.888-1.642,8.942-3.053,10.148l-0.612-8.701L-310.551-87.167  z"></path><circle cx="-33.598" cy="-94.81" r="8.082"></circle><path d="M-25.149-74.605c-0.338-2.193-2.649-6.171-4.032-7.906c-1.482-1.86-8.758-2.737-9.588-0.509  c-0.77,2.068-2.154,6.782-2.031,8.59c0.258,3.795,2.058,13.705-4.682,14.479c-0.809,0.093-5.111,1.277-5.111,1.277  c-2.409,0.292-4.603,1.53-6.099,3.442l-2.469,3.157l-18.013,3.097c-0.64,0.11-33.705,4.497-33.705,4.497  c-2.471,0.308-4.292,1.957-4.11,3.722c0.182,1.766,2.301,3.008,4.783,2.805c0,0,33.623-2.815,34.189-2.879  c0,0,23.102,0.15,30.294-2.293c1.416-0.481,5.006-3.276,5.006-3.276c0.846-0.554,1.665-1.143,2.47-1.75l-0.513,7.6  c-0.121,1.786,0.902,3.308,2.308,3.436c1.406,0.128,2.687-1.185,2.89-2.963l1.579-13.78c0.885-0.674,2.931-5.292,5.362-10.459  C-25.149-67.441-24.742-71.964-25.149-74.605z"></path><path d="M54.916-69.999c-1.695-2.025-4.061-8.663-4.865-11.01c-0.187-0.547-0.422-1.066-0.708-1.568  c-1.725-3.028-8.426-14.365-8.458-14.663l-1.764-16.091c-0.098-0.892-0.337-1.565-1.229-1.656c-1.148-0.117-1.646,0.59-1.624,1.694  c0,0,0.304,17.102,0.445,17.415l5.984,13.274c0.317,0.703-0.266,1.703-0.723,2.325c-0.608,0.827-1.015,1.805-1.157,2.862  c-0.407,3.025,1.069,4.914,8.62,13.438c0.87,0.982,1.812,4.926,1.812,4.926l0,0l-12.115,9.693c-0.879,0.622-1.168,1.822-0.818,2.978  c0.024,0.293,8.826,19.92,8.826,19.92c0.528,1.168,1.776,1.751,2.834,1.323c1.057-0.428,1.549-1.715,1.115-2.922l-5.793-17.821  l16.318-9.099C67.688-58.745,59.204-64.876,54.916-69.999z"></path><path d="M47.031-88.687c0.186,0.318,0.369,0.632,0.55,0.941c0.404-0.805,0.636-1.71,0.636-2.672c0-3.19-2.502-5.788-5.649-5.959  C43.584-94.589,45.512-91.289,47.031-88.687z"></path><path d="M40.585-84.68l-3.738-8.292c-0.368,0.776-0.58,1.639-0.58,2.555C36.267-87.693,38.092-85.399,40.585-84.68z"></path><circle cx="207.839" cy="-84.377" r="7.161"></circle><path d="M205.238-55.984c5.148-3.706,8.382-9.648,8.383-16.034c0-3.069-2.879-3.843-6.329-2.443l-14.373,9.125  c-0.654,0.415-1.043,1.084-1.14,1.799c-0.535-0.016-4.542-0.738-4.542-0.738c-1.456-0.321-2.975-0.194-4.358,0.363l-4.316,1.738l0,0  l-21.116,2.463c-0.448,0.031-28.808,0.766-28.808,0.766c-2.038,0.06-3.641,1.117-3.639,2.399c0.002,1.281,1.61,2.332,3.648,2.384  c0,0,28.307,0.958,29.003,0.962l28.499,2.694c3.849,0,7.67-0.66,11.297-1.95l3.21-1.142l5.604,4.516  c1.053,0.849,2.484,0.827,3.246-0.049c0.762-0.876,0.585-2.296-0.401-3.221L205.238-55.984z"></path><circle cx="325.874" cy="-92.537" r="9.126"></circle><path d="M326.166-77.06c-0.417-1.226-1.296-2.244-2.427-2.874c-1.866-1.039-4.715-2.585-5.3-2.673  c-6.126-0.929-24.504-3.716-24.504-3.716c-0.165-0.025-24.586-6.473-24.586-6.473c-0.08-0.021-0.159-0.027-0.239-0.044  c0.377-2.516-0.422-4.745-2.135-5.405h0c-2.098-0.809-4.778,1.017-6.058,4.128L246.069-58.02c-0.589,1.431-3.255,8.573,2.995,10.143  c0,0,23.28,9.459,31.51,9.539c2.683,0.026,20.583-1.22,20.583-1.22c5.424-0.413,10.954-2.441,14.245-6.773  c1.895-2.494,4.595-8.214,6.444-10.742C324.813-61.127,329.119-68.389,326.166-77.06z M298.726-54.761l-2.36-1.022  c-3.878-1.058-8.428,0.143-10.943,1.881l-3.041,2.102l-25.757-5.851l10.586-29.363c0.129,0.054,0.251,0.115,0.387,0.159  c0,0,24.948,7.863,24.988,7.871l18.989,4.105c0,0-2.877,10.583-3.839,14.11C306.35-55.685,302.113-54.23,298.726-54.761z"></path><g><circle cx="-281.076" cy="38.481" r="5.561"></circle><path d="M-266.712,64.578l-14.658-1.518l0.673-14.398c0.029-0.627-0.349-1.32-0.705-1.554c-0.628-0.412-2.169-0.619-2.904-0.775   c-2.207-0.469-4.487,0.295-5.731,2.177l-3.43,5.188c-1.237,1.871-3.444,2.857-5.663,2.531l-0.641-0.094   c-3.471-0.511-7.016,0.07-10.143,1.662l-1.493,0.76l-13.85,1.971c-0.122,0.017-27.009,2.189-27.009,2.189   c-1.568,0.129-2.763,1.076-2.733,2.165v0c0.031,1.104,1.31,1.967,2.904,1.959c0,0,27.06-0.204,27.188-0.205l22.626-0.23   c0.395-0.004,4.404,0.029,4.404,0.029c1.311,0.131,2.632-0.106,3.815-0.686l8.587-4.207l0.231,3.536   c0.065,0.996,0.892,1.77,1.89,1.77c0.317,0,16.496,0.23,16.496,0.23c0.996,0.029,1.808-0.461,1.856-1.12   C-264.954,65.29-265.707,64.682-266.712,64.578z"></path></g><path d="M88.877,49.92c0.051-1.594-0.611-4.504-0.631-4.54c-0.843-1.965-3.911-9.172-6.258-15.44  c-1.524-4.069-21.124-18.057-21.124-18.057C57.508,9.83,53.651,9,49.717,9h-4.94c-2.929,0-5.689,1.111-7.465,3.441  c0,0-3.386,3.372-2.917,5.638l2.261,30.429c0.033,0.45-0.981,31.07-0.981,31.07c-0.118,2.858,1.323,5.205,3.265,5.338  c1.942,0.133,3.691-2.021,3.963-4.868c0,0,2.979-31.738,2.978-31.966l-0.115-21.032l1.879-0.45c2.926-0.7,6.012-0.121,8.486,1.593  l5.589,3.873c2.58,1.788,3.829,4.954,3.165,8.022c0,0-0.737,2.807-0.815,3.767c-0.402,4.935,1.997,9.697,5.007,13.629l3.11,4.064  l4.724,22.649l-37.969,0.8c-3.768,0.079-6.753,2.02-6.762,4.396c-0.009,2.376,2.961,4.339,6.728,4.448l40.258,1.159  c1.283,0.037,4.287-0.379,4.668-0.381c3.243-0.014,5.895-2.818,6.008-6.351L88.877,49.92z"></path><path d="M-49.638,44.585l0.559-8.973c0.154-2.473-0.908-4.866-2.845-6.411l-6.907-5.508c-2.026-1.615-4.619-2.34-7.189-2.01  l-8.691,1.119c-1.868,0.24-3.671,0.839-5.312,1.762c0,0-3.294,1.821-4.922,2.746c-0.572,0.325-1.074,0.752-1.489,1.263  l-15.775,19.42c-0.859,0.846-1.102,2.052-0.746,3.11c-0.054,0.399,3.546,29.316,3.546,29.316c0.235,1.855,1.436,3.233,2.713,3.113  s2.169-1.695,2.014-3.557c0,0-2.352-28.228-2.356-28.259l13.355-11.602c0.654-0.568,1.511-0.844,2.373-0.765h0  c2.416,0.222,4.822-0.517,6.698-2.056l3.96-3.25c2.496-2.048,6.103-2.003,8.547,0.108L-59,36.833l2.591,6.719l8.434,17.047  c0.118,0.239,1.352,20.504,1.352,20.504c0.059,1.304,0.914,2.323,1.931,2.302c1.017-0.021,1.828-1.076,1.833-2.381l0.067-19.746  C-42.789,60.461-49.638,44.585-49.638,44.585z"></path><g><path d="M-44.333,43.167c-1.584,0-3.042,0.52-4.229,1.39c2.8,6.496,4.442,10.434,5.404,12.839c3.397-0.562,5.991-3.505,5.991-7.062   C-37.167,46.375-40.375,43.167-44.333,43.167z"></path></g><path d="M33.403,18.461c-0.156-0.862,0.075-1.765,0.472-2.612C33.349,9.771,28.257,5,22.043,5c-6.563,0-11.884,5.321-11.884,11.884  c0,6.563,5.321,11.884,11.884,11.884c5.503,0,10.118-3.745,11.471-8.822L33.403,18.461z"></path></svg>