<svg xmlns="http://www.w3.org/2000/svg" xmlns:xlink="http://www.w3.org/1999/xlink" version="1.1" x="0px" y="0px" viewBox="0 0 100 100" enable-background="new 0 0 100 100" xml:space="preserve"><circle cx="11.971" cy="50.605" r="6.971"></circle><path d="M94.207,88.01c0.898-0.936,1.061-2.27,0.348-2.995L80.364,70.57c-0.477-0.486-18.383-18.341-19.1-18.337l-20.58-8.786  c-1.842-0.786-3.825-1.191-5.828-1.189l-7.2,0.007l-1.977-14.961c-0.04-0.354-4.996-17.716-4.996-17.716  c-0.407-1.302-1.506-2.112-2.523-1.858c-1.074,0.268-1.661,1.619-1.312,3.018c0,0,4.414,16.812,4.427,17.04  c0,0,0.726,17.534,0.726,18.595v6.998c0,1.813,1.551,18.788,1.551,18.788c-0.01,0.258-4.456,17.081-4.456,17.081  c-0.349,1.399,0.202,2.751,1.276,3.018c1.017,0.254,2.098-0.556,2.504-1.858c0,0,4.904-17.33,4.934-17.653l0.284-15.336l2.623-0.023  c3.161-0.058,6.249,0.939,8.78,2.834l9.838,7.368c0.2,0.608,22.068,13.479,22.471,13.732l17.159,10.753  c0.862,0.54,2.129,0.094,2.85-0.984h0c0.491-0.734,0.586-1.576,0.354-2.235C92.844,88.924,93.617,88.626,94.207,88.01z   M73.446,75.805c-0.014-0.012-0.024-0.027-0.038-0.039L57.3,61.989l0.509-0.764l17.287,12.488  c0.13,0.094,12.527,11.516,12.527,11.516S74.04,75.797,73.446,75.805z"></path></svg>