<svg xmlns="http://www.w3.org/2000/svg" xmlns:xlink="http://www.w3.org/1999/xlink" version="1.1" x="0px" y="0px" viewBox="0 0 100 100" enable-background="new 0 0 100 100" xml:space="preserve"><path d="M92.64,89.369c0,0-17.294-13.433-17.968-13.882c0,0-2.024-3.312-5.878-5.834c0,0-4.962-3.793-5.892-6.286  c-0.498-1.334-0.095-9.291-0.29-14.737c-0.016-0.434-0.082-0.861-0.186-1.283l-2.976-12.123c-0.363-1.477-0.071-3.038,0.8-4.284  l7.844-11.223c0.037-0.034,0.084-0.051,0.118-0.09L78.957,7.337c0.501-0.573,0.47-1.43-0.069-1.949  c-0.533-0.514-1.38-0.518-1.935-0.01L64.906,16.412c-0.308,0.282-10.935,12.569-10.935,12.569s-7.113,4.933-9.108,6.999  c-2.348,2.433-7.855,11.011-7.856,11.013c-2.045,2.401-3.055,7.052-3.725,12.742l-21.008,1.148  c-2.818,0.154-4.229,2.444-3.966,4.909c0.655,6.136-2.385,24.567-2.385,24.567c-0.172,1.774,1.071,3.346,2.776,3.511  c1.653,0.16,3.145-0.953,3.383-2.664l2.99-21.34h20.911c0.458,0,11.911,0.362,12.458,0.648l22.283,11.642  c0.24,0.125,18.45,12.24,18.45,12.24c0.942,0.617,2.092,0.776,3.072,0.413C94.523,93.961,94.744,90.933,92.64,89.369z   M49.951,52.287c1.572-1.458,4.205-1.659,5.683-1.643c0.621,0.006,1.128,0.488,1.177,1.106l0.851,10.677  c0.033,0.41,0.07,2.009,0.07,2.009c-2.884-1.864-3.808-2.362-3.92-2.447C52.077,60.679,46.667,55.333,49.951,52.287z"></path><circle cx="69.973" cy="37.967" r="7.07"></circle></svg>