<svg xmlns="http://www.w3.org/2000/svg" xmlns:xlink="http://www.w3.org/1999/xlink" version="1.1" x="0px" y="0px" viewBox="-199 201 100 100" enable-background="new -199 201 100 100" xml:space="preserve"><g display="none"><g display="inline"><circle cx="-139.015" cy="215.743" r="9.743"></circle><path d="M-124.005,232.639c-0.208-0.398-3.401-1.511-6.595-2.54c-4.523-1.457-9.342-1.787-14.01-0.9    c-1.849,0.351-3.425,0.735-3.826,1.074c0,0-19.335,16.552-19.551,17.062c-0.313,0.181-18.205,23.585-18.205,23.585    c-0.872,1.148-0.725,2.736,0.332,3.576l0,0c1.048,0.834,2.613,0.631,3.539-0.459c0,0,6.83-7.756,12.467-14.12l6.518,10.718    c-4.285,0.451-8.123,0.963-9.46,1.156c-0.328,0.047-0.639,0.164-0.895,0.374c-1.285,1.052-2.168,2.717-1.957,4.545    c0.466,4.033,23.477,18.936,23.477,18.936c1.191,0.813,3.077,0.183,4.247-1.42c1.161-1.589,1.198-3.56,0.084-4.459l-0.212-0.171    c3.566,0.249,7.463-0.737,7.463-0.737c4.327-0.847,7.743-4.174,8.705-8.477l0.401-6.468v-17.535c0-4.647,1.048-9.214,3.019-13.391    c4.117,6.352,10.334,15.899,10.642,16.086l-2.675,27.779c-0.138,1.435,0.822,2.708,2.164,2.867    c1.33,0.157,2.554-0.838,2.769-2.252l4.324-28.499C-111.08,257.911-124.005,232.639-124.005,232.639z M-148.712,241.94    l-1.332,4.896c-0.332,1.221-0.521,2.476-0.562,3.74l-0.522,16.024l-10.684-14.437c-0.155-0.209-0.336-0.387-0.517-0.565    L-148.712,241.94z M-157.486,281.983l1.055,0.005l1.01,1.66L-157.486,281.983z"></path></g></g><circle cx="-139.016" cy="215.743" r="9.743"></circle><path d="M-147.84,289.767l-10.208-8.236l-6.719-11.049l-6.212,0.533c-2.749,0.236-4.814,2.755-4.669,5.694  c0.132,2.682,23.477,18.936,23.477,18.936c1.191,0.813,3.077,0.183,4.247-1.42C-146.764,292.637-146.727,290.665-147.84,289.767z"></path><path d="M-126.787,231.756c-8.815-2.782-11.485-3.311-19.173-1.948c-1.589,0.282-3.075,0.978-4.299,2.029  c-4.82,4.136-17.554,15.087-17.73,15.5c-0.312,0.179-18.204,23.583-18.204,23.583c-0.872,1.148-0.725,2.736,0.332,3.576l0,0  c1.048,0.834,2.613,0.631,3.539-0.459c0,0,19.377-22.004,19.791-22.297l13.817-9.8l-1.332,4.896  c-0.332,1.221-0.521,2.476-0.562,3.741l-0.522,16.024l-10.457-14.13l-0.219,0.156c-0.484,0.492-3.553,3.937-7.428,8.313  l12.058,19.828l10.053,8.111c0.264,0.213,6.534-0.018,6.534-0.018c4.327-0.847,7.743-4.174,8.705-8.477l0.401-6.468v-17.537  c0-4.647,1.048-9.214,3.019-13.391c4.117,6.352,10.335,15.899,10.642,16.086l-2.675,27.779c-0.138,1.435,0.822,2.708,2.164,2.867  c1.33,0.157,2.554-0.838,2.769-2.252l4.324-28.499c0.129-0.849-8.166-17.285-11.45-23.75  C-123.534,233.562-125.014,232.315-126.787,231.756z"></path></svg>