<svg xmlns="http://www.w3.org/2000/svg" xmlns:xlink="http://www.w3.org/1999/xlink" version="1.1" x="0px" y="0px" viewBox="0 0 100 100" enable-background="new 0 0 100 100" xml:space="preserve"><path d="M82.183,90.701L66.761,78.266l0.049-0.049L55.541,68.189c1.329-10.044-12.083-2.136-3.952-24.317  c1.278-3.488-0.054-19.184-0.123-19.327l0.083-17.806c0.049-0.946-0.745-1.741-1.659-1.741c-0.793,0-1.489,0.602-1.586,1.414  l-2.081,17.266c-0.124,0.235-1.1,16.498-1.1,16.498c-1.984,1.774-4.915,2.274-5.895,4.374c-1.761,3.774,0.794,12.993,0.656,18.071  l-17.432,5.565c-0.691,0.423-1.204,1.12-1.363,1.963l-3.901,20.674C16.982,91.914,17.819,93,18.93,93h1.251  c0.804,0,1.507-0.616,1.713-1.393l5.079-19.193l18.483-1c0,0,16.72,11.214,16.87,11.318l17.225,11.949  c0.913,0.633,2.176,0.279,2.629-0.735l0.509-1.143C83.017,92.068,82.809,91.205,82.183,90.701z"></path><path d="M44.217,36.256c0.345-5.658,0.554-8.834,0.691-10.624c-2.014,1.018-3.398,3.102-3.398,5.513  C41.51,33.27,42.584,35.144,44.217,36.256z"></path><path d="M53.23,33.87c0.406-0.823,0.64-1.746,0.64-2.726c0-1.196-0.345-2.308-0.933-3.254C53.061,29.609,53.171,31.715,53.23,33.87z  "></path></svg>