<svg xmlns="http://www.w3.org/2000/svg" xmlns:xlink="http://www.w3.org/1999/xlink" version="1.1" x="0px" y="0px" viewBox="0 0 100 100" enable-background="new 0 0 100 100" xml:space="preserve"><g><circle cx="39.186" cy="88.639" r="6.361"></circle><path d="M59.532,76.634l0.601-14.049c0.35-2.612-0.33-5.258-1.894-7.379l-0.998-1.353c-1.17-1.585-1.924-3.438-2.196-5.389   l-1.672-12.03c-0.106-0.761-1.217-27.123-1.217-27.123C52.137,6.917,50.791,4.987,49.148,5c-1.582,0.012-2.873,1.827-2.938,4.129   c0,0-0.692,28.302-0.523,28.879c0,0,2.152,22.712,2.734,23.262l1.52,3.354c1.869,4.124,0.389,8.409-1.708,12.422   c-1.295,2.48-2.183,8.744-1.778,11.048c0.175,0.995,0.363,4.298,0.363,4.298c0,1.391,0.764,2.609,2.155,2.609h15.683   c1.391,0,2.518-1.309,2.518-2.7C67.176,91.632,59.53,76.672,59.532,76.634z M58.403,83.659l2.65,5.748l-4.32-0.227   C56.733,89.18,58.328,83.931,58.403,83.659z"></path></g></svg>