<svg xmlns="http://www.w3.org/2000/svg" xmlns:xlink="http://www.w3.org/1999/xlink" version="1.1" x="0px" y="0px" viewBox="-199 201 100 100" enable-background="new -199 201 100 100" xml:space="preserve"><path d="M-103.683,276.806l-8.186-17.42c-0.108-0.209-2.631-24.171-2.631-24.171c0-0.669-0.552-3.649-1.666-4.844  c-3.509-3.767-19.6-6.489-29.37-3.52c-9.769,2.968-12.861,8.157-12.862,8.159l-16.047,18.262  c-0.134,0.155-18.449,19.264-18.449,19.264c-0.794,0.82-0.811,2.116-0.04,2.958c0.768,0.84,2.057,0.938,2.944,0.225  c0,0,20.816-16.55,20.94-16.945l19.158-14.182l19.202,16.142c0.271,0.231,17.045,16.907,17.045,16.907  c0.825,0.789,2.121,0.8,2.958,0.024c0.835-0.773,0.926-2.062,0.208-2.945c0,0-14.322-19.159-14.426-19.305l-14.88-17.739  c2.201-0.12,5.024-0.03,8.441,0.564c4.323,0.75,6.405,0.692,9.071,0.136c0,0,4.621,21.103,4.946,21.66l10.724,18.368  c0.482,0.826,1.56,1.077,2.357,0.549C-103.539,278.485-103.297,277.561-103.683,276.806z"></path><path d="M-122.439,242.286c-0.127,0.564-0.2,1.149-0.2,1.752c0,1.832,0.625,3.514,1.665,4.86  C-121.393,247.02-121.879,244.826-122.439,242.286z"></path><path d="M-111.765,251.443c2.956-1.163,5.051-4.036,5.051-7.405c0-3.959-2.892-7.234-6.677-7.849  C-112.884,241.004-112.262,246.847-111.765,251.443z"></path></svg>