<svg xmlns="http://www.w3.org/2000/svg" xmlns:xlink="http://www.w3.org/1999/xlink" version="1.1" x="0px" y="0px" viewBox="0 0 100 100" enable-background="new 0 0 100 100" xml:space="preserve"><g><circle cx="78.924" cy="38.481" r="5.561"></circle><path d="M93.288,64.578L78.63,63.06l0.673-14.398c0.029-0.627-0.349-1.32-0.705-1.554c-0.628-0.412-2.169-0.619-2.904-0.775   c-2.207-0.469-4.487,0.295-5.731,2.177l-3.43,5.188c-1.237,1.871-3.444,2.857-5.663,2.531l-0.641-0.094   c-3.472-0.511-7.016,0.07-10.143,1.662l-1.493,0.76l-13.85,1.971c-0.122,0.017-27.009,2.189-27.009,2.189   c-1.568,0.129-2.763,1.076-2.733,2.165v0c0.031,1.104,1.31,1.967,2.904,1.959c0,0,27.06-0.204,27.188-0.205l22.626-0.23   c0.395-0.004,4.404,0.029,4.404,0.029c1.311,0.131,2.632-0.106,3.815-0.686l8.587-4.207l0.231,3.536   c0.065,0.996,0.892,1.77,1.89,1.77c0.317,0,16.496,0.23,16.496,0.23c0.996,0.029,1.808-0.461,1.856-1.12   C95.046,65.29,94.293,64.682,93.288,64.578z"></path></g></svg>