<svg xmlns="http://www.w3.org/2000/svg" xmlns:xlink="http://www.w3.org/1999/xlink" version="1.1" x="0px" y="0px" viewBox="-199 201 100 100" enable-background="new -199 201 100 100" xml:space="preserve"><circle cx="-148.873" cy="215.233" r="11.233"></circle><path d="M-106.986,282.642c0.151-0.703-0.037-1.463-0.572-2.011c0,0-17.646-17.996-17.798-18.09  c0.044-0.231-1.22-28.089-1.22-28.089c-0.075-1.628-1.417-2.655-3.045-2.655l-10.954-2.537c-5.412-1.6-11.175-1.573-16.573,0.079  l-10.348,2.457c-1.629,0-2.97,1.027-3.045,2.655c0,0-1.265,27.921-1.22,28.152c-0.15,0.094-17.796,18.043-17.796,18.043  c-0.562,0.574-0.738,1.375-0.545,2.102c-3.464,3.083-1.935,6.843-1.935,6.843c0,2.027,1.865,3.69,3.892,3.763l57.375,5.642  c2.132,0.077,3.967-1.631,3.967-3.763c0-1.873-1.31-3.46-3.164-3.727c0,0-22.79-3.371-22.782-3.415c0,0-18.64-3.538-19.382-3.889  l19.598,2.935l8.254-0.014l19.412-2.922c-0.742,0.35-19.514,4.036-19.514,4.036l14.565,2.102c2.375,0.342,4.081,2.4,4.081,4.893  c0,0.841,17.241-3.561,19.462-5.052C-104.703,289.128-104.934,285.239-106.986,282.642z M-161.552,268.808l-1.748,5.161  c-0.697,2.056-0.858,4.158-0.47,6.293l0.161,0.795h-20.121l15.661-14.337c0.614-0.566,2.174-3.354,2.317-4.382l2.248-16.036  c0.613,0.771,1.018,1.702,1.146,2.688l1.571,12.051C-160.446,263.653-160.708,266.314-161.552,268.808z M-132.208,281.057  l-0.757-4.694c-0.137-0.869-0.364-1.672-0.676-2.493l-1.787-4.684c-1.044-2.749-1.367-5.707-0.938-8.617l1.666-11.305  c0.109-0.736,0.366-1.439,0.758-2.07l0.362-0.584l2.217,15.903c0.143,1.028,1.703,3.67,2.317,4.237l15.645,14.306H-132.208z"></path></svg>