<svg xmlns="http://www.w3.org/2000/svg" xmlns:xlink="http://www.w3.org/1999/xlink" version="1.1" x="0px" y="0px" viewBox="-199 201 100 100" enable-background="new -199 201 100 100" xml:space="preserve"><g display="none"><path display="inline" d="M-101.507,264.053c-0.038-2.981-2.686-5.436-5.621-4.913c-0.202,0.036-0.405,0.085-0.606,0.146   l-18.242,6.515l2.294-10.751c-0.246-2.033-1.096-3.946-2.44-5.491l-8.299-9.54c-0.877-1.008-2.147-1.587-3.483-1.587l-1.652-5.179   c0.674-1.266,1.059-2.71,1.059-4.245c0-3.538-2.034-6.594-4.992-8.083l-0.025-0.077c-0.179-0.56-15.306-16.072-15.306-16.072   c-0.736-0.726-1.904-0.912-2.758-0.329c-1.095,0.747-1.244,2.235-0.412,3.18l11.347,12.883c-3.475,1.265-5.961,4.588-5.961,8.5   c0,5,4.054,9.054,9.054,9.054c0.552,0,1.091-0.057,1.616-0.152l1.156,5.25c0.168,0.761,5.237,10.119,8.341,15.806   c1.525,2.795,0.59,6.303-2.131,7.957l-0.1,0.061c-2.408,1.456-4.204,3.737-5.064,6.417c-0.801,2.496-1.551,4.995-1.551,4.995   l-12.476,9.169c-0.584,0.429-1.273,0.673-1.997,0.704c-5.889,0.255-34.734,2.77-34.734,2.77c-1.404,0.131-2.398,1.552-1.863,3.021   c0.321,0.883,1.235,1.411,2.174,1.402l32.347-0.294c13.776-0.248,30.024-12.703,33.602-16.627c0.712-0.781,1.587-1.385,2.581-1.746   l14.838-5.392l3.747,24.352c0.145,0.945,0.782,1.794,1.704,2.049c1.57,0.434,3.006-0.692,3.076-2.19   C-102.284,295.616-101.412,271.592-101.507,264.053z"></path></g><path d="M-101.507,264.054c-0.038-2.981-2.687-5.436-5.621-4.912c-0.202,0.037-0.405,0.085-0.606,0.146l-18.243,6.514l2.295-10.751  c-0.246-2.033-1.096-3.947-2.44-5.492l-8.299-9.54c-0.877-1.008-2.148-1.587-3.483-1.587l0,0l-5.611-17.585  c-0.178-0.56-15.306-16.071-15.306-16.071c-0.736-0.726-1.905-0.912-2.758-0.329c-1.095,0.747-1.244,2.235-0.413,3.179l12.587,14.29  c0.008,0.166,0.022,0.333,0.058,0.502l4.567,20.744c0.168,0.761,5.237,10.119,8.341,15.806c1.525,2.795,0.589,6.302-2.131,7.957  l-0.101,0.06c-2.408,1.456-4.204,3.737-5.063,6.417c-0.801,2.496-1.551,4.995-1.551,4.995l-12.476,9.169  c-0.584,0.428-1.274,0.672-1.996,0.704c-5.888,0.258-34.732,2.773-34.732,2.773c-1.404,0.131-2.398,1.551-1.863,3.02  c0.321,0.883,1.235,1.411,2.174,1.402l32.347-0.294c13.776-0.248,30.024-12.703,33.602-16.627c0.712-0.781,1.588-1.385,2.581-1.746  l14.838-5.392l3.747,24.351c0.145,0.945,0.782,1.794,1.704,2.049c1.57,0.434,3.006-0.692,3.077-2.19  C-102.283,295.617-101.412,271.593-101.507,264.054z"></path><path d="M-156.605,229.008c0,5,4.053,9.054,9.054,9.054c0.153,0,0.302-0.016,0.453-0.023l-3.384-15.372  c-0.021-0.093-0.036-0.182-0.047-0.269l-1.235-1.401C-154.642,222.513-156.605,225.53-156.605,229.008z"></path><path d="M-138.872,231.571c0.24-0.814,0.374-1.673,0.374-2.563c0-2.887-1.356-5.452-3.461-7.11L-138.872,231.571z"></path></svg>