<svg xmlns="http://www.w3.org/2000/svg" xmlns:xlink="http://www.w3.org/1999/xlink" version="1.1" x="0px" y="0px" viewBox="0 0 100 100" enable-background="new 0 0 100 100" xml:space="preserve"><circle cx="85.874" cy="27.463" r="9.126"></circle><path d="M86.166,42.94c-0.417-1.226-1.296-2.245-2.427-2.874c-1.866-1.039-4.715-2.585-5.3-2.673  c-6.126-0.929-24.504-3.716-24.504-3.716c-0.165-0.025-24.586-6.473-24.586-6.473c-0.08-0.021-0.159-0.027-0.239-0.044  c0.377-2.516-0.422-4.745-2.135-5.405h0c-2.098-0.809-4.778,1.017-6.058,4.128L6.069,61.98c-0.589,1.431-3.255,8.573,2.995,10.143  c0,0,23.28,9.459,31.51,9.539c2.683,0.026,20.583-1.22,20.583-1.22c5.424-0.413,10.955-2.441,14.245-6.773  c1.895-2.493,4.595-8.214,6.444-10.742C84.813,58.873,89.119,51.611,86.166,42.94z M58.726,65.239l-2.36-1.022  c-3.878-1.058-8.428,0.143-10.943,1.881l-3.041,2.102L16.625,62.35l10.586-29.363c0.129,0.054,0.251,0.115,0.387,0.159  c0,0,24.948,7.863,24.988,7.871l18.989,4.105c0,0-2.877,10.583-3.839,14.11C66.35,64.315,62.113,65.77,58.726,65.239z"></path></svg>