<svg xmlns="http://www.w3.org/2000/svg" xmlns:xlink="http://www.w3.org/1999/xlink" version="1.1" x="0px" y="0px" viewBox="0 0 100 100" enable-background="new 0 0 100 100" xml:space="preserve"><path d="M94.151,34.075l-15.923-1.31c-0.176-0.014-1.194-0.498-1.674-0.728l-9.159-3.618c-0.167-0.052-1.87-0.857-2.629-0.712  c-8.894,1.694-14.568,0.979-17.248,0.365c-1.59-1.437-4.346-1.856-5.289-1.348c-3.859,2.08-15.693,2.734-15.996,2.89L7.847,29.232  c-1.541-0.032-2.791,0.716-2.845,1.703c-0.054,0.981,1.092,1.857,2.617,2.002l19.028,1.802c0.22,0.07,12.698,0.621,12.698,0.621  l1.259,17.969c0.032,0.455,4.042,19.312,4.042,19.312c0.303,1.512,1.304,2.57,2.279,2.409c0.969-0.16,1.577-1.469,1.387-2.988  c0,0-2.177-18.591-2.167-18.794l0.821-16.997c7.256-0.359,16.862,4.14,20.746,0.45c0.503-0.478,0.787-1.366,0.875-2.401  c3.429,0.904,9.032,2.437,9.445,2.442l15.973,0.174C95.237,36.95,95.37,34.176,94.151,34.075z"></path><path d="M76.936,31.07l0.034,0.013l0.033,0.016c0.943,0.452,1.289,0.594,1.405,0.637l3.057,0.252  c0.075-0.375,0.116-0.763,0.116-1.161c0-3.255-2.639-5.894-5.894-5.894c-2.408,0-4.475,1.445-5.39,3.514L76.936,31.07z"></path></svg>