<svg xmlns="http://www.w3.org/2000/svg" xmlns:xlink="http://www.w3.org/1999/xlink" version="1.1" x="0px" y="0px" viewBox="0 0 100 100" enable-background="new 0 0 100 100" xml:space="preserve"><path d="M93.323,64.592L73.413,54.02c-0.37-0.197-17.374-9.922-17.483-9.977c-0.003-0.01-0.005-0.021-0.008-0.031  c-0.921-2.535-3.629-4.374-6.844-4.374c-0.44,0-10.645-3.273-16.145-5.243c-2.596-0.93-5.33-1.404-8.087-1.404h-1.898  c-1.865,0-3.434,1.399-3.646,3.252c0,0,0.944,17.482,0.954,17.541l0.504,15.587c0.033,1.03,0.811,1.847,1.773,1.863h0  c1.002,0.017,1.833-0.84,1.855-1.913l0.569-16.529c0.007-0.342,0.054-7.794,0.054-7.794l25.588,6.67h0.013  c0.436,0,19.453,8.139,19.795,8.298l20.439,9.524c1.524,0.71,3.279,0.172,3.919-1.202C95.38,66.969,94.747,65.348,93.323,64.592z"></path><circle cx="11.115" cy="34.88" r="6.115"></circle></svg>