<svg xmlns="http://www.w3.org/2000/svg" xmlns:xlink="http://www.w3.org/1999/xlink" version="1.1" x="0px" y="0px" viewBox="40 -40 100 100" enable-background="new 40 -40 100 100" xml:space="preserve"><g display="none"><g display="inline"><circle cx="85.59" cy="-12.515" r="5.231"></circle><path d="M137.24,22.348c-0.187-0.899-1.028-1.517-1.945-1.566l-20.384-1.107l-18.377-2.337l-1.22-2.287    c-1.693-3.174-2.508-6.741-2.362-10.335l0.298-7.359c0.065-1.598-1.078-3.086-2.677-3.047l-5.278,0.273    c-0.455,0.024-0.911,0.01-1.364-0.04L78.406-6c-1.525,0-2.734,1.285-2.642,2.807l0.876,14.427l-0.152,9.594l-11.805,5.199    L44.161,33.38c-0.709,0.255-1.266,0.869-1.353,1.617c-0.158,1.36,0.989,2.021,2.264,1.771l12.975-3.589    c2.794-0.62,8.006-2.945,8.006-2.945l18.328-4.154c1.474-0.395,2.982-0.653,4.503-0.771l2.641-0.205l21.734-1.311    c2.876,0.741,5.591,0.797,8.558,0.644l13.711-0.276C136.688,24.057,137.483,23.517,137.24,22.348z M81.572,15.203l-0.597,3.695    L79,19.813V-1.424l2.107,7.167C82.008,8.815,82.169,12.057,81.572,15.203z"></path></g></g><circle cx="85.59" cy="-12.515" r="5.231"></circle><path d="M137.24,22.348c-0.187-0.899-1.028-1.517-1.945-1.566l-20.384-1.107l-18.377-2.337l-1.22-2.287  c-1.693-3.174-2.508-6.741-2.362-10.335l0.298-7.359c0.065-1.598-1.078-3.086-2.677-3.047l-5.278,0.273  c-0.455,0.024-0.911,0.01-1.364-0.04L78.406-6c-1.525,0-2.734,1.285-2.642,2.807l0.891,14.683l0.004,8.238L79,18.72V-1.424  l2.107,7.167c0.901,3.072,1.062,6.314,0.465,9.459l-0.7,3.695l-16.189,7.129L44.161,33.38c-0.709,0.255-1.266,0.869-1.353,1.617  c-0.158,1.36,0.989,2.021,2.264,1.771l12.975-3.589c2.794-0.62,8.006-2.945,8.006-2.945l18.328-4.154  c1.474-0.395,2.982-0.653,4.503-0.771l2.641-0.205l21.734-1.311c2.876,0.741,5.591,0.797,8.558,0.644l13.711-0.276  C136.688,24.057,137.483,23.517,137.24,22.348z"></path></svg>