<svg xmlns="http://www.w3.org/2000/svg" xmlns:xlink="http://www.w3.org/1999/xlink" version="1.1" x="0px" y="0px" viewBox="0 0 100 100" enable-background="new 0 0 100 100" xml:space="preserve"><path d="M49.244,76.49l-6.147-17.504c-0.176-0.501-3.016-17.278-3.016-17.278c-0.076-0.537-0.871-2.95-0.917-3.087  c-0.354-1.426-1.506-2.555-2.966-2.886c-2.818-0.639-5.772,0.194-7.837,2.224l-2.943,2.886c-2.316,2.27-3.741,5.293-4.027,8.532  l-0.217,2.532c-0.205,2.35-0.011,4.998,0.57,7.279L23.388,66H8.365C6.506,66,5,67.219,5,69.078c0,0.319,1.312,2.993,3.125,3.712  l11.692,5.632c1.677,0.662,3.456,0.09,3.992-1.245c0.468-1.175-0.171-2.596-1.506-3.394l-0.878-0.511l9.593,0.794  c0.502,0.034,3.023,1.23,4.152,1.355c0,0,3.411,0.352,7.7,0.809l-6.673-15.502c-0.057-0.16-0.16-0.559-0.388-1.689  c-1.392-1.255-2.213-3.069-2.213-4.985c0-1.015,0.217-1.996,0.662-2.909c0.011-0.011,0.011-0.034,0.023-0.046l0.818-1.671  c0.932,4.889,2.051,10.686,2.146,10.846l7.644,17.761c0.615,1.591,2.079,2.507,3.269,2.047  C49.313,79.635,49.792,78.051,49.244,76.49z"></path><circle cx="40.726" cy="26.548" r="6.749"></circle><path d="M95,74.837c0.011,1.665-1.232,3-4.141,3.011l-30.855,0.148c-0.217,0-4.506-0.433-9.456-0.958  c-0.046-0.308-0.125-0.616-0.228-0.924l-3.046-8.658c5.76,1.186,13.038,2.692,13.198,2.703l30.924,1.688  C94.065,71.997,95,73.309,95,74.837z"></path></svg>