<svg xmlns="http://www.w3.org/2000/svg" xmlns:xlink="http://www.w3.org/1999/xlink" version="1.1" x="0px" y="0px" viewBox="0 0 200 200" enable-background="new 0 0 200 200" xml:space="preserve"><g display="none"><circle display="inline" cx="171.032" cy="41.354" r="18.968"></circle><path display="inline" d="M176.034,70.734c-0.806-0.254-1.66-0.734-2.56-0.702c0,0-2.758-0.034-7.082-0.034h-0.558   c-0.222,0-0.438,0.374-0.658,0.386c-16.48,0.706-57.232,2.968-57.232,2.968c-13.102-3.046-89.4-17.362-89.4-17.362   c-3.638-0.668-7.194,1.556-8.244,5.102c-1.15,3.882,1.108,7.972,5.01,9.05l26.696,7.388c-1.504,0.918-2.43,2.168-2.408,3.528   c0.042,2.638,3.592,4.754,8.052,4.796c0,0,11.624,0.104,25.244,0.22l19.758,5.46l9.396,64.58   c2.03,13.95,15.136,23.48,29.018,21.146l0.018,0.168l0.428-0.046c10.228-1.076,19.526-6.416,25.606-14.71l10.854-14.802   c13.162-20.55,21.59-50.794,21.724-54.598l0.242-6.852C190.224,78.254,184.028,71.414,176.034,70.734z M131.548,137.824   l-10.374-51.168l30.592,1.35l-3.752,18.496C145.612,118.338,139.866,129.182,131.548,137.824z"></path></g><circle cx="171.032" cy="41.352" r="18.968"></circle><path d="M47.21,73.064l48.914-2.026C70.614,65.9,18.546,56.076,18.546,56.076c-3.638-0.668-7.194,1.514-8.244,5.06  c-1.15,3.882,1.108,7.952,5.01,9.03l23.142,6.394C40.33,74.566,43.454,73.22,47.21,73.064z"></path><path d="M176.034,70.734c-0.806-0.254-1.66-0.734-2.56-0.702c0,0-2.758-0.034-7.082-0.034h-0.558c-0.222,0-0.438,0.374-0.658,0.386  c-16.48,0.706-51.868,2.426-52.574,2.776l-65.11,2.774c-4.456,0.184-7.936,2.452-7.894,5.09c0.042,2.638,3.592,4.772,8.052,4.814  c0,0,67.282,0.604,67.838,0.542c0.042,0.002,0.08,0.02,0.12,0.022L151.768,88l-3.752,18.498  c-2.402,11.836-8.146,22.68-16.466,31.322l-9.77-48.18l-6.308-0.278l-0.188-0.012c-0.11,0.002-0.244,0.004-0.386,0.004  c-2.914,0-16.658-0.106-30.972-0.226l8.726,2.412l9.396,64.58c2.03,13.95,15.136,23.48,29.018,21.146l0.018,0.168l0.428-0.046  c10.228-1.076,19.526-6.416,25.606-14.71l10.854-14.802c13.162-20.55,21.59-50.794,21.724-54.598l0.242-6.852  C190.224,78.254,184.028,71.414,176.034,70.734z"></path></svg>