<svg xmlns="http://www.w3.org/2000/svg" xmlns:xlink="http://www.w3.org/1999/xlink" version="1.1" x="0px" y="0px" viewBox="0 0 100 100" enable-background="new 0 0 100 100" xml:space="preserve"><path d="M88.399,89.169l-8.846-45.138c-0.469-2.391-2.388-4.028-4.358-3.718c-1.979,0.312-3.304,2.48-2.999,4.909l4.751,37.909  l-14.9-6.93c-0.55-0.77-7.45-7.696-9.265-8.497c-1.963-0.866-3.799-5.804-3.799-5.804c-0.258-1.836,0.213-3.7,1.312-5.193  l2.911-3.956c1.105-1.502,2.971-2.234,4.802-1.877c3.358,0.655,8.966,1.74,13.744,2.663L70.8,45.951l-9.254-3.315  c-0.481-0.173-0.587-0.4-1.017-0.679c0,0-12.529-8.047-12.529-8.209V13.006l10.526,3.992c-0.173-0.01-0.521-0.026-0.696-0.026  c-5.146,0-9.407,4.172-9.407,9.318c0,5.146,4.128,9.318,9.274,9.318c5.146,0,9.296-4.172,9.296-9.318c0-3.033-1.467-5.719-3.71-7.42  l4.802,1.764c1.682,0.617,3.459-0.003,4.069-1.417c0.638-1.481-0.245-3.284-1.97-4.028L47.282,5.317  c-1.393-0.6-2.891-0.317-3.759,0.576c-0.871,0.421-1.538,1.372-1.713,2.569l-3.826,26.176c-1.374,0.78-2.521,1.931-3.28,3.352  l-3.117,5.842c-0.996,1.867-1.253,4.039-0.721,6.087l6.678,25.7L16.9,76.327c-3.014,0.103-5.403,2.576-5.403,5.591  c0,0.103,0.213,2.967,1.758,4.048c0.96,0.911,27.689,8.692,27.689,8.692c2.904,0.872,5.764,0.012,6.261-1.883v0  c0.43-1.642-1.073-3.524-3.529-4.419l-0.185-0.067c1.825-0.166,3.373-1.182,4.265-2.653c0.212,0.096,35.241,9.132,35.241,9.132  c1.158,0.298,2.32,0.048,3.241-0.569C87.848,93.475,88.839,91.414,88.399,89.169z"></path><path d="M71.151,24.234l2.328,15.158c0.459-0.252,0.949-0.452,1.486-0.537c0.234-0.037,0.474-0.056,0.711-0.056h0  c2.524,0,4.763,2.081,5.325,4.948l2.102,10.726c0.234-0.256,0.425-0.561,0.552-0.915c0.341-0.953-6.458-29.21-6.458-29.21  c-0.434-1.992-1.184-3.672-3.2-3.606C72.072,20.805,70.862,22.332,71.151,24.234z"></path></svg>