<svg xmlns="http://www.w3.org/2000/svg" xmlns:xlink="http://www.w3.org/1999/xlink" version="1.1" x="0px" y="0px" viewBox="0 0 100 100" enable-background="new 0 0 100 100" xml:space="preserve"><circle cx="48.449" cy="34.192" r="5.097"></circle><path d="M94.991,67.802c-0.119-0.855-0.892-1.472-1.753-1.523c0,0-15.678-1.939-20.864-1.238c-0.385,0.052-9.554-1.74-14.704-2.756  l-0.065,6.918c-0.001,0.124-0.023,0.242-0.04,0.361c6.795,0.457,14.557,0.395,14.901,0.183c5.266-0.916,20.76,0.085,20.76,0.085  C94.294,69.837,95.144,68.899,94.991,67.802z"></path><path d="M56.513,55.126l-3.004-10.538c-0.062-0.216-0.836-1.772-1.505-1.947l-3.44-0.902c-2.966-0.018-5.581,4.129-5.581,4.129  C41.784,47.544,41,49.553,41,51.614v10.151c0,0.644-0.185,1.177-0.827,1.223c0,0-7.361,0.501-11.926,0.852  c-1.638,0.126-20.198,1.219-21.635,1.264C5.674,65.16,4.97,65.937,4.97,66.876c0,0.983,1.119,1.792,2.102,1.788  c0,0,15.536,0.431,21.205-0.193c4.017-0.442,12.12,1.666,16.128,1.152c1.865-0.239,4.291-1.252,5.601-0.964  c0.609,0.134,1.309,0.255,2.07,0.364l0.092-9.723c-1.531-2.378-2.262-5.542-1.539-8.023c0,0,2.452,5.57,2.598,5.738l-0.114,12.146  c-0.009,0.954,0.757,1.735,1.711,1.744c0.954,0.009,1.735-0.757,1.744-1.711l0.124-13.131  C56.694,55.824,56.538,55.214,56.513,55.126z"></path></svg>