<svg xmlns="http://www.w3.org/2000/svg" xmlns:xlink="http://www.w3.org/1999/xlink" version="1.1" x="0px" y="0px" viewBox="-429 231 100 100" enable-background="new -429 231 100 100" xml:space="preserve"><g display="none"><g display="inline"><circle cx="-379.487" cy="244.156" r="10.656"></circle><path d="M-345.193,280.93l-2.827,0.138l-10.425-19.141c-3.345-5.089-8.092-3.604-8.092-3.604l-7.507-0.56    c-3.366-0.251-6.745-0.279-10.115-0.083l-7.552,0.438c-3.149-0.716-6.334,0.724-7.863,3.569l-10.413,19.398l-2.823-0.146    c-6.796-0.332-11.433,6.771-8.396,12.86l17.962,32.687c0.634,1.154,1.804,1.983,3.12,2.013c2.413,0.057,4.17-2.254,3.484-4.557    l-4.449-14.938l8.06,6.676c4.012,3.324,9.566,3.801,14.03,1.429c4.464,2.372,10.017,1.894,14.03-1.429l8.06-6.676l-4.407,14.797    c-0.543,1.822,0.346,3.857,2.14,4.488c1.721,0.605,3.509-0.145,4.324-1.628l18.058-32.866    C-333.757,287.706-338.397,280.599-345.193,280.93z M-354.347,285.581l-1.376,0.955l-12.414,2.646    c0.066-2.973,0.878-5.926,2.457-8.557l4.03-6.718L-354.347,285.581z M-396.338,273.922l4.022,6.703    c1.577,2.629,2.39,5.579,2.457,8.55l-11.994-2.555l-1.685-1.183L-396.338,273.922z"></path></g></g><circle cx="-379.489" cy="244.156" r="10.656"></circle><path d="M-358.447,261.653c-1.529-2.845-4.736-4.319-7.886-3.604l-2.335,0.538c-9.663,0.225-11.332,0.225-20.327,0.077l-2.668-0.614  c-3.149-0.716-6.359,0.759-7.888,3.604l-15.727,29.287c-0.036,0.067-0.049,0.146-0.034,0.22c0.454,2.342,2.448,4.081,4.841,4.203  c0,0,31.651,0.58,31.653,0.579l31.291-0.579c2.39-0.121,4.384-1.856,4.84-4.195c0.016-0.08,0.002-0.164-0.037-0.235  L-358.447,261.653z M-374.714,290.619l-2.717-12.412c-0.055-0.798-0.623-1.418-1.424-1.418c-0.021,0-0.035,0.011-0.055,0.012  c-0.02-0.001-0.037-0.012-0.058-0.012c-0.8,0-1.458,0.62-1.512,1.418l-2.849,12.412l-20.665-4.453l7.644-12.228l4.034,6.688  c1.408,2.347,2.203,4.951,2.405,7.597l5.827,1.264l2.613-11.33c0.131-1.261,1.189-2.157,2.456-2.157h0.16  c1.284,0,2.287,0.844,2.415,2.163l2.49,11.269l5.867-1.26c0.209-2.628,1.003-5.214,2.403-7.546l4.063-6.662l7.633,12.202  L-374.714,290.619z"></path><path d="M-354.609,296.495l-24.233,0.451l-24.55-0.452l4.193,14.076l6.169,5.11c4.013,3.324,9.566,3.802,14.03,1.43  c3.627,1.927,7.973,1.973,11.628,0.14c0.844-0.423,8.571-6.679,8.571-6.679L-354.609,296.495z"></path><path d="M-404.823,296.467l-5.699-0.105c-2.922-0.148-5.306-2.266-5.797-5.15c0,0-0.013-0.255,0.001-0.34  c0.014-0.085,0.104-0.301,0.104-0.301l5.132-9.557l-1.723-0.084c-6.797-0.332-11.437,6.776-8.399,12.865l18.058,32.866  c0.617,1.123,1.793,1.826,3.074,1.838c2.386,0.023,4.113-2.271,3.432-4.558L-404.823,296.467z"></path><path d="M-345.194,280.931l-1.721,0.084l5.132,9.557c0,0,0.115,0.205,0.129,0.29c0.014,0.085-0.024,0.351-0.024,0.351  c-0.491,2.884-2.876,5.002-5.83,5.151l-5.667,0.105l-8.185,27.473c-0.681,2.287,1.046,4.58,3.432,4.558  c1.282-0.012,2.457-0.715,3.074-1.838l18.058-32.866C-333.758,287.706-338.398,280.599-345.194,280.931z"></path></svg>