<svg xmlns="http://www.w3.org/2000/svg" xmlns:xlink="http://www.w3.org/1999/xlink" version="1.1" x="0px" y="0px" viewBox="-429 231 100 100" enable-background="new -429 231 100 100" xml:space="preserve"><g display="none"><path display="inline" d="M-334.977,289.252l-30.738-2.366c1.676-1.71,2.712-4.049,2.712-6.632c0-5.235-4.244-9.479-9.479-9.479   c-1.156,0-2.26,0.217-3.284,0.596c-0.879-6.652-5.962-7.688-9.131-8.601c-11.479-3.305-21.223,0.861-27.828,3.826   c-7.225,3.246-12.773,13.019-13.533,16.204c-0.374,1.568-0.204,6.445-0.204,6.445c0,4.37,3.417,7.885,7.786,7.79l28.933-1.269   c0.519,2.389,2.434,4.348,5.056,4.679l24.704-1.73c1.392-0.097,2.459-1.196,2.585-2.55l4.513-0.002l17.712,0.308   c2.018,0.035,3.672-1.591,3.672-3.61C-331.5,290.919-333.037,289.325-334.977,289.252z M-387.701,285.585l-20.314-1.41   c2.033-1.003,2.757-2.745,11.64-2.967c3.217-0.08,6.844-0.359,10.154-0.9L-387.701,285.585z"></path></g><path d="M-360.231,293.088l-21.129,0.225c-0.385,0.004-0.657-0.378-0.526-0.74l5.999-16.599c0.311-1.373,0.275-3.443-0.059-5.288  c0.015-0.006,0.027-0.017,0.042-0.023c-1.143-6-5.945-7.014-8.994-7.892c-11.479-3.305-21.223,0.861-27.828,3.826  c-7.225,3.245-12.773,13.019-13.533,16.204c-0.374,1.568-0.204,6.445-0.204,6.445c0,4.37,3.424,7.885,7.793,7.79l27.694-1.843  c-0.085-0.86-0.021-1.738,0.218-2.59l2.049-7.309l-19.432-1.178c0.641-1.143,3.123-2.692,11.765-2.908  c3.219-0.08,6.845-0.361,10.155-0.903l-3.528,12.579c-0.988,3.524,1.387,7.102,5.018,7.56l24.726-1.73  c1.516-0.106,2.675-1.396,2.618-2.915C-357.443,294.275-358.704,293.072-360.231,293.088z"></path><path d="M-334.977,289.253l-28.795-2.217c1.764-1.721,2.863-4.122,2.863-6.782c0-5.235-4.244-9.479-9.479-9.479  c-1.565,0-3.033,0.393-4.333,1.064c0.167,1.629,0.111,3.241-0.144,4.366l-0.014,0.063l-0.022,0.061l-5.757,15.929l20.459-0.218  c2.087,0,3.783,1.634,3.861,3.72c0.005,0.138,21.166,0.71,21.166,0.71c2.018,0.035,3.673-1.591,3.673-3.61  C-331.501,290.92-333.037,289.326-334.977,289.253z"></path></svg>