<svg xmlns="http://www.w3.org/2000/svg" xmlns:xlink="http://www.w3.org/1999/xlink" version="1.1" x="0px" y="0px" viewBox="0 0 100 100" enable-background="new 0 0 100 100" xml:space="preserve"><path d="M73.883,56.218c-1.127-4.495-4.021-8.35-8.013-10.703c0,0-15.507-10.532-19.196-11.309  c-9.016-1.898-36.139-7.236-36.139-7.236c-6.181-0.018-5.638,4.116-5.407,5.295l8.514,36.079c0.318,1.621,1.761,2.708,3.25,2.45  c1.489-0.258,2.481-1.768,2.235-3.401L14.441,36.3l18.128,7.019l1.106,1.559C36.116,48.026,39.875,50,43.858,50h5.417  c1.269,0,2.441,0.547,3.073,1.648l7.363,12.769c0,0-9.709,0.474-10.213,0.489l-20.636,0.593c-1.937,0.057-3.465,1.164-3.465,2.519  c0,1.356,1.528,2.466,3.465,2.523c0,0,23.323,0.409,23.682,0.422l20.661,0.764C75.261,71.802,77,70.359,77,68.553v-1.529  C77,66.223,73.883,56.218,73.883,56.218z"></path><circle cx="86.365" cy="64.391" r="8.638"></circle></svg>