<svg xmlns="http://www.w3.org/2000/svg" xmlns:xlink="http://www.w3.org/1999/xlink" version="1.1" x="0px" y="0px" viewBox="0 0 100 100" enable-background="new 0 0 100 100" xml:space="preserve"><path d="M93.575,71.844l-22.998-10.57C70.248,61.123,51.4,47.661,50.755,47.278L24.806,31.854c-1.954-1.161-5.894-0.558-6.541,1.62  c-1.646,5.545,0.653,22.112,0.705,23.126l1.11,21.821c0.064,1.249,0.57,1.372,1.594,1.372c1.058,0,2.142-0.185,2.167-1.479  c0,0,0.159-22.231,0.159-22.408V44.828l20.814,11.583c0.502,0.348,22.775,11.029,22.775,11.029  c0.21,0.097,24.081,8.915,24.081,8.915c1.229,0.457,2.615-0.136,3.122-1.345C95.302,73.795,94.772,72.395,93.575,71.844z"></path><circle cx="11.631" cy="26.84" r="6.634"></circle><path d="M17.717,56.665c-0.008-0.144-0.061-0.588-0.138-1.257c-0.302-2.614-0.97-5.594-1.197-8.555  c-0.014,0.13-0.381,0.259-0.381,0.4v25.581c0,1.328,1.127,2.434,2.325,2.718L17.717,56.665z"></path><polygon points="25,46.952 25,51.245 35.75,53.464 "></polygon><path d="M93.575,71.844l-22.998-10.57C70.248,61.123,51.4,47.661,50.755,47.278L24.806,31.854c-1.954-1.161-5.894-0.558-6.541,1.62  c-1.646,5.545,0.653,22.112,0.705,23.126l1.11,21.821c0.064,1.249,0.57,1.372,1.594,1.372c1.058,0,2.142-0.185,2.167-1.479  c0,0,0.159-22.231,0.159-22.408V44.828l20.814,11.583c0.502,0.348,22.775,11.029,22.775,11.029  c0.21,0.097,24.081,8.915,24.081,8.915c1.229,0.457,2.615-0.136,3.122-1.345C95.302,73.795,94.772,72.395,93.575,71.844z"></path></svg>