<svg xmlns="http://www.w3.org/2000/svg" xmlns:xlink="http://www.w3.org/1999/xlink" version="1.1" x="0px" y="0px" viewBox="0 0 100 100" enable-background="new 0 0 100 100" xml:space="preserve"><g><circle cx="57.289" cy="63.379" r="7.162"></circle><path d="M94.985,63.38c-0.263-0.91-0.465-1.755-2.509-2.837c0,0-20.363-13.144-21.22-13.71c0,0-22.01-15.415-24.924-16.144   c-0.978-0.245-3.914-0.979-3.914-0.979c-5.443-1.361-10.629,2.983-10.246,8.58l1.754,25.567c0,0-10.008,0.576-10.1,0.594   L6.887,65.148c-1.087,0.045-1.926,0.72-1.886,1.518c0.039,0.775,0.895,1.394,1.952,1.412l16.84,0.279   c0.122,0.026,17.461,0.431,17.461,0.431c3.372-0.001,5.772-3.054,5.503-5.254L44.78,47.335c-0.211-1.725,1.381-3.121,3.064-2.687   c0,0,41.989,20.398,42.061,20.498c0.513,0.708,0.356,3.481,0.356,3.481c0.07,0.686,0.956,1.189,2.003,1.135   c0.965-0.049,1.76-0.558,1.865-1.194C94.128,68.568,95.134,63.896,94.985,63.38z"></path></g></svg>