<svg xmlns="http://www.w3.org/2000/svg" xmlns:xlink="http://www.w3.org/1999/xlink" version="1.1" x="0px" y="0px" viewBox="0 0 100 100" enable-background="new 0 0 100 100" xml:space="preserve"><circle cx="86.202" cy="48.049" r="8.798"></circle><path d="M73.437,35.364l-8.749-12.632c-2.591-3.741-6.191-6.698-10.395-8.538l-6.299-2.758c-3.616-1.583-7.597-2.142-11.497-1.632  c-1.134,0.148-4.338,2.005-4.754,2.227c-2.542,1.357-4.265,5.605-2.729,8.157l13.358,19.993L11.266,26.614  c-2.7-1.178-5.304-0.965-6.057,0.495c-0.82,1.589,0.837,4.076,3.701,5.553L49.72,53.712c1.253,0.646,2.523,0.976,3.633,1.027  l-7.97,6.554c-0.044,0.038-0.08,0.078-0.119,0.116c-0.654,0.594-1.088,1.477-1.109,2.483l-0.476,23.145  c-0.037,1.793,1.226,3.277,2.841,3.339c1.619,0.062,2.994-1.328,3.088-3.123l1.099-20.816c0.108-0.068,19.544-15.444,19.544-15.444  c0.706-0.559,3.982-4.064,4.547-5.683C75.963,41.969,75.459,38.283,73.437,35.364z M61.474,48.061l-3.045,2.504  c0.108-0.882-0.01-1.809-0.411-2.685l-2.538-5.55L61.474,48.061z"></path></svg>