<svg xmlns="http://www.w3.org/2000/svg" xmlns:xlink="http://www.w3.org/1999/xlink" version="1.1" x="0px" y="0px" viewBox="-199 201 100 100" enable-background="new -199 201 100 100" xml:space="preserve"><path d="M-130.725,256.949l-4.218,12.704c-0.332,1,0.162,2.088,1.133,2.496c1.027,0.432,2.21-0.051,2.642-1.079  c0,0,2.311-5.468,4.63-10.949l-0.039-0.033C-126.746,259.951-128.319,258.761-130.725,256.949z"></path><path d="M-104.756,270.021l-16.438-15.357c-0.387-0.361-11.656-12.177-16.934-17.714l0,0c-0.298-0.313-1.125-2.389-1.464-3.068  c0.02-0.01,0.04-0.021,0.06-0.031c4.323,4.535,13.153,13.795,17.116,17.93c0.689-1.624,1.134-2.668,1.145-2.684l0,0  c1.3-1.769,0.919-4.257-0.851-5.556l-17.28-12.193c-1.289-0.909-2.705-1.623-4.203-2.116l-9.281-3.058  c-1.717-0.566-3.554-0.662-5.321-0.277l-5.201,1.131c-3.1,0.674-5.706,2.761-7.04,5.639l-2.814,6.066  c1.848,0.066,3.849,0.824,4.817,1.941c0.095,0.109-0.09,0.861-0.265,1.485c-0.171,0.61-0.284,1.229-0.331,1.86  c-0.272,3.695-1.208,16.426-1.241,16.662l-1.916,13.582c-0.112,0.793,0.281,1.614,1.019,1.926c1.095,0.463,2.254-0.225,2.436-1.319  l2.268-13.611c0.011-0.065,3.044-12.578,3.885-16.046c0.141-0.581,0.407-1.125,0.779-1.592l2.646-3.323  c1.395-1.752,3.4-2.911,5.615-3.246l0.137-0.021c1.53-0.231,3.041,0.522,3.777,1.883l1.137,2.102  c0.437,0.807,1.036,1.505,1.77,2.057c4.472,3.358,20.989,15.763,21.456,16.153l17.387,14.534c1.072,0.896,2.699,0.718,3.543-0.451  C-103.611,272.296-103.844,270.873-104.756,270.021z"></path><path d="M-170.747,243.937c0.05-0.687,0.512-2.614,0.548-2.777c-0.548-0.416-2.01-1.354-4.032-1.318  c-3.54,0.062-6.392,2.944-6.392,6.498c0,3.592,2.912,6.503,6.503,6.503c0.989,0,1.923-0.227,2.762-0.622  C-171.167,249.645-170.954,246.75-170.747,243.937z"></path><path d="M-175.112,238.786l2.066-4.455c-0.778-0.357-1.731-0.248-2.403,0.381c0,0-10.666,10.571-10.886,11.039l-7.606,16.164  c-0.328,0.698-0.101,1.53,0.536,1.964c0.772,0.526,1.83,0.264,2.268-0.56l8.392-15.794c0.018-0.035,0.404-0.337,1.019-0.804  c-0.006-0.127-0.019-0.252-0.019-0.38C-181.746,242.472-178.848,239.275-175.112,238.786z"></path><g display="none"><path display="inline" d="M-105.214,270.107l-16.512-15.428c-0.086-0.081-0.724-0.741-1.707-1.766   c0.958-2.259,1.616-3.806,1.63-3.825l0,0c1.305-1.777,0.923-4.276-0.854-5.582l-19.312-13.626l-11.593-3.82   c-1.725-0.568-3.57-0.665-5.345-0.279l-5.225,1.136c-3.114,0.677-5.732,2.773-7.072,5.664c0,0-3.492,1.176-4.432,2.055   c0,0-10.715,10.619-10.936,11.089l-7.64,16.237c-0.33,0.701-0.101,1.537,0.539,1.973c0.776,0.528,1.838,0.266,2.278-0.563   l8.43-15.866c0.028-0.053,0.906-0.724,2.155-1.663c-0.011,0.157-0.024,0.313-0.024,0.473c0,3.608,2.925,6.533,6.533,6.533   c1.49,0,2.859-0.504,3.958-1.344c-0.331,4.479-0.673,9.077-0.693,9.218l-1.925,13.644c-0.112,0.797,0.282,1.622,1.024,1.935   c1.1,0.465,2.264-0.226,2.447-1.325l2.279-13.673c0.013-0.076,4.117-17.005,4.117-17.005l3.227-4.052   c1.401-1.76,3.416-2.924,5.64-3.26l0.137-0.021c1.537-0.232,3.055,0.524,3.794,1.891l1.142,2.111   c0.439,0.811,1.04,1.512,1.778,2.066c3.049,2.289,11.669,8.763,17.042,12.81l-4.611,13.891c-0.334,1.005,0.162,2.097,1.139,2.508   c1.032,0.434,2.221-0.051,2.654-1.083c0,0,2.634-6.233,5.106-12.074c0.117,0.09,0.199,0.154,0.225,0.175l17.466,14.6   c1.077,0.9,2.711,0.721,3.559-0.454C-104.063,272.392-104.298,270.962-105.214,270.107z"></path></g></svg>