<svg xmlns="http://www.w3.org/2000/svg" xmlns:xlink="http://www.w3.org/1999/xlink" version="1.1" x="0px" y="0px" viewBox="0 0 1664 1664" enable-background="new 0 0 1664 1664" xml:space="preserve"><path d="M1534.557,1177.729l-458.682-15.126l34.661-466.519c0.765-10.3-0.732-20.134-3.311-29.553c-0.05-0.433,0.083-0.915,0-1.331  c-17.655-101.105-168.746-115.016-217.085-143.969c-303.164-181.592-441.609-186.035-553.347-67.858  c-23.629,24.993-33.862,51.933-38.322,71.685c-2.496,5.391-3.411,29.004-3.411,29.004l22.115,318.939  c0.25,3.844,12.796,385.582,12.796,385.582c0.599,15.009,14.211,26.907,30.817,26.907c16.607,0,30.218-11.898,30.817-26.907  c0,0,12.547-381.738,12.796-385.582l13.795-205.953l1.93,2.196c67.475,71.985,105.165,16.524,146.299-36.325  c0,0,43.98-16.89,48.605-17.422c117.245-13.578,168.497,82.568,272.829,153.121l34.378,462.858  c1.947,26.308,26.807,47.407,58.772,52.682c7.488,4.36,16.157,6.872,25.476,6.573l528.087-17.405  c25.759-0.865,46.226-22.015,46.226-47.807C1580.8,1199.727,1560.333,1178.595,1534.557,1177.729z"></path><path d="M274.543,555.493l-0.083-1.115l0.05-1.115c0.383-9.951,1.048-17.023,1.78-22.348c-17.522-8.287-37.041-13.062-57.724-13.062  c-74.764,0-135.366,60.603-135.366,135.367s60.603,135.366,135.366,135.366c25.975,0,50.136-7.438,70.753-20.118L274.543,555.493z"></path><g display="none"><path display="inline" d="M1534.557,1177.729l-458.682-15.126l34.661-466.519c0.765-10.3-0.732-20.134-3.311-29.553   c-0.05-0.433,0.083-0.915,0-1.331c-17.655-101.105-168.746-115.016-217.085-143.969   c-303.164-181.592-441.609-186.035-553.347-67.858c-23.629,24.993-33.862,51.933-38.322,71.685   c-1.281,2.779-2.147,10.333-2.679,17.056c-21.915-15.259-48.489-24.261-77.226-24.261c-74.764,0-135.366,60.603-135.366,135.366   s60.603,135.366,135.366,135.366c34.761,0,66.377-13.212,90.339-34.761l8.27,119.192c0.25,3.844,12.796,385.582,12.796,385.582   c0.599,15.009,14.211,26.907,30.817,26.907s30.218-11.898,30.817-26.907c0,0,12.547-381.738,12.796-385.582l13.795-205.953   l1.93,2.196c67.475,71.985,105.165,16.523,146.299-36.325c0,0,43.98-16.89,48.605-17.422   c117.245-13.578,168.497,82.568,272.829,153.121l34.378,462.858c1.947,26.308,26.807,47.407,58.772,52.682   c7.488,4.36,16.157,6.872,25.476,6.573l528.087-17.406c25.759-0.882,46.226-22.031,46.226-47.823   C1580.8,1199.727,1560.333,1178.595,1534.557,1177.729z"></path></g></svg>