<svg xmlns="http://www.w3.org/2000/svg" xmlns:xlink="http://www.w3.org/1999/xlink" version="1.1" x="0px" y="0px" viewBox="0 0 100 100" enable-background="new 0 0 100 100" xml:space="preserve"><path d="M54.916,50.001c-1.695-2.025-4.061-8.663-4.865-11.01c-0.187-0.547-0.422-1.066-0.708-1.568  c-1.725-3.028-8.426-14.365-8.458-14.663L39.12,6.668c-0.098-0.892-0.337-1.565-1.229-1.656c-1.148-0.117-1.646,0.59-1.624,1.694  c0,0,0.304,17.102,0.445,17.415l5.984,13.274c0.317,0.703-0.266,1.703-0.723,2.325c-0.608,0.827-1.015,1.805-1.157,2.862  c-0.407,3.025,1.069,4.914,8.62,13.438c0.87,0.982,1.812,4.926,1.812,4.926l0,0l-12.115,9.693c-0.879,0.622-1.168,1.822-0.818,2.978  c0.024,0.293,8.826,19.92,8.826,19.92c0.528,1.168,1.776,1.751,2.834,1.323c1.057-0.428,1.549-1.715,1.115-2.922l-5.793-17.821  l16.318-9.099C67.688,61.255,59.204,55.124,54.916,50.001z"></path><path d="M47.031,31.313c0.186,0.318,0.369,0.632,0.55,0.941c0.404-0.805,0.636-1.71,0.636-2.672c0-3.19-2.502-5.788-5.649-5.959  C43.584,25.411,45.512,28.711,47.031,31.313z"></path><path d="M40.585,35.32l-3.738-8.292c-0.368,0.776-0.58,1.639-0.58,2.555C36.267,32.307,38.092,34.601,40.585,35.32z"></path></svg>