<svg xmlns="http://www.w3.org/2000/svg" xmlns:xlink="http://www.w3.org/1999/xlink" version="1.1" x="0px" y="0px" viewBox="0 0 100 100" enable-background="new 0 0 100 100" xml:space="preserve"><circle cx="84.524" cy="44.409" r="6.254"></circle><path d="M75.943,90.447l-5.559-7.398c0,0,2.321-10.761,2.83-13.153l2.652-14.421c0.226-1.335-1.966-18.188-2.079-18.907  L72.122,25.46c-0.027-0.175-0.968-18.425-0.968-18.425c-0.066-1.168-0.797-2.062-1.634-2.034c-0.837,0.028-1.507,0.968-1.496,2.138  c0,0-0.067,18.577-0.043,18.839l0.502,11.254c0.006,0.063-16.328,4.078-20.671,5.791c-6.147,2.425-10.479,5.074-9.85,8.908  L25.276,70.733L10.023,90.306c-1.083,1.405-1.06,3.216,0.015,4.091c1.076,0.875,2.853,0.527,4.008-0.82  c0,0,15.971-17.95,16.113-18.089l13.869-14.236L57.101,75.68c0.194,0.226,8.851,10.898,8.851,10.898l-0.768,4.112  c-0.236,1.145,0.241,2.197,1.057,2.386c0.816,0.188,1.705-0.548,1.996-1.681l0.417-1.587l3.228,3.86  c1.138,1.36,2.911,1.73,3.997,0.869C76.964,93.676,77.008,91.865,75.943,90.447z M62.081,70.719L51.041,53.145  c2.563-0.728,5.297-0.732,7.891,0.04l3.905,1.163c1.224,0.364,2.487,0.582,3.762,0.648l3.742,0.194  c0.063,0.003-1.391,15.347-1.201,14.234l-1.665,9.754C67.476,79.178,62.264,70.92,62.081,70.719z"></path></svg>