<svg xmlns="http://www.w3.org/2000/svg" xmlns:xlink="http://www.w3.org/1999/xlink" version="1.1" x="0px" y="0px" viewBox="0 0 100 100" enable-background="new 0 0 100 100" xml:space="preserve"><g display="none"><path display="inline" d="M93.656,88.35c0,0-15.991-12.432-16.615-12.847c0,0-18.882-12.428-19.289-12.487   c-8.297-7.546-10.124-18.509-30.422-23.626c-0.004-0.256-4.633-16.185-4.633-16.185c-0.173-0.625-7.379-14.97-7.379-14.97   c-0.599-1.308-1.697-2.058-2.535-1.732c-0.862,0.336-1.151,1.695-0.658,3.093c0,0,5.289,14.396,5.68,14.777   c0,0,2.441,16.33,2.508,16.52c1.182,3.591,1.717,8.606,1.613,11.643c0,0-0.289,5.089-0.529,9.338l-2.054,0.112   c-2.605,0.142-3.911,2.259-3.668,4.539c0.606,5.674-2.206,22.717-2.206,22.717c-0.159,1.64,0.99,3.094,2.567,3.247   c1.529,0.148,2.908-0.528,3.128-2.11l1.864-13.067c0.076,4.365,0.186,8.54,0.186,8.54c0.055,1.482,0.823,2.64,1.748,2.636   c0.899-0.004,1.645-1.105,1.721-2.542c0,0,0.718-9.799,1.116-14.946h15.465c0.424,0,11.014-0.018,11.52,0.246l20.605,10.589   c0.222,0.116,17.06,11.23,17.06,11.23c0.871,0.571,1.935,0.674,2.84,0.337C95.397,92.619,95.601,89.797,93.656,88.35z    M27.406,61.547l1.404-6.631c4.884,1.192,9.269,2.444,9.958,6.011L27.406,61.547z"></path><circle display="inline" cx="11.669" cy="49.895" r="6.668"></circle></g><g><circle cx="11.669" cy="49.895" r="6.668"></circle><path d="M20.096,68H20.08c0,0,0.002-0.305,0.315-5.835l-1.053-0.06c-2.605,0.142-3.911,2.201-3.668,4.48   c0.606,5.674-2.206,22.687-2.206,22.687c-0.159,1.64,0.99,3.079,2.567,3.232c1.529,0.148,2.908-0.535,3.128-2.117l1.003-6.804   C19.978,72.02,19.994,69,20.096,68z"></path><path d="M93.656,88.35c0,0-15.991-12.432-16.615-12.847c0,0-18.882-12.428-19.289-12.487c-8.297-7.546-10.124-18.509-30.422-23.626   c-0.004-0.256-4.633-16.185-4.633-16.185c-0.173-0.625-7.379-14.97-7.379-14.97c-0.599-1.308-1.697-2.058-2.535-1.732   c-0.862,0.336-1.151,1.695-0.658,3.093c0,0,5.289,14.396,5.68,14.777c0,0,2.441,16.33,2.508,16.52   c1.182,3.591,1.717,8.606,1.613,11.643c0,0-0.344,6.118-0.343,6.119c-0.235,4.141-0.503,8.863-0.503,8.874   c-0.162,0.253,0.134,18.322,0.134,18.322c0.017,0.455,0.107,0.872,0.242,1.242c0.211,0.572,0.539,1.01,0.932,1.231   c0.181,0.101,0.372,0.164,0.573,0.163c0.102,0,0.201-0.019,0.298-0.047c0.761-0.22,1.358-1.224,1.42-2.491   c0,0,1.11-14.824,1.12-14.95h0l1.771-9.462l1.239-6.622c4.884,1.192,9.269,2.444,9.958,6.011l-10.169,0.556L26.817,71h14.447   c0.424,0,11.014-0.018,11.52,0.246l20.605,10.589c0.222,0.116,17.06,11.23,17.06,11.23c0.871,0.571,1.935,0.674,2.84,0.337   C95.397,92.619,95.601,89.797,93.656,88.35z"></path></g></svg>