<svg xmlns="http://www.w3.org/2000/svg" xmlns:xlink="http://www.w3.org/1999/xlink" version="1.1" x="0px" y="0px" viewBox="40 -40 100 100" enable-background="new 40 -40 100 100" xml:space="preserve"><g display="none"><path display="inline" d="M109.698-29.525c0,3.613-3.165,7.807-4.959,7.807s-4.959-4.195-4.959-7.807   c0-3.612,2.22-5.276,4.959-5.276S109.698-33.138,109.698-29.525z"></path><path display="inline" d="M112.912-12.597c0.198-1.246,0.433-2.605,0.726-4.08c-0.14,0.01-0.28,0.021-0.426,0.021   c-2.71,0-4.275-1.77-4.704-3.819c-0.062,0.058-0.145,0.103-0.266,0.129c-0.203,0.038-0.494,0.026-0.823,0   c-0.811-0.088-1.886-0.317-2.685-0.317c-0.811,0-1.937,0.241-2.773,0.329c-0.303,0.026-0.57,0.038-0.76,0   c-0.001,0-0.002-0.001-0.003-0.001c-0.424,2.06-1.991,3.845-4.708,3.845c-0.233,0-0.455-0.017-0.672-0.042   c0.245,1.292,0.459,2.505,0.637,3.62c0.379,2.292,0.608,4.228,0.747,5.888c0.468,5.456-0.156,8.065-0.511,11.053   c-0.088,0.796-0.371,1.619-0.371,2.543V6.66c0,0,0.13,0,0.13,0.012c-0.076,0.05-17.394,10.166-17.394,10.166   c-0.797,0.443-1.152,1.443-1.076,2.57c0.026,1.899,0.481,4.064,3.001,3.951L103,21.777l-0.265,11.37l-1.266,22.993   c-0.064,1.405,0.975,2.595,2.304,2.709c1.329,0.101,2.558-0.911,2.709-2.317c0,0,3.329-22.802,3.343-22.853l3.038-25.499   c0-0.064-0.152-1.038-0.076-1.519c0.101-0.696,0.126-1.329,0.088-1.937c0-0.139,0-0.291-0.026-0.431   c0-0.088-0.012-0.177-0.026-0.265c-0.215-2.43-1.038-4.925-0.596-10.876C112.355-8.483,112.57-10.369,112.912-12.597z    M103.116,16.561l-5.077-0.088l4.583-1.95c0.012-0.012,0.026-0.012,0.026-0.012c0.165,0.038,0.341,0.088,0.519,0.114   L103.116,16.561z"></path><path display="inline" fill="#000000" d="M120.828-5.566L120.828-5.566c0.912-0.672,1.107-1.956,0.435-2.868l-9.015-12.235   c-0.708-0.961-2.084-1.117-2.989-0.339l-0.748,0.644c-0.853,0.733-0.956,2.017-0.232,2.877l9.764,11.592   C118.738-5.069,119.957-4.924,120.828-5.566z"></path><path display="inline" fill="#000000" d="M103.291-9.158L103.291-9.158c-0.138,1.128,0.664,2.155,1.792,2.293l13.319,1.633   c1.183,0.145,2.241-0.742,2.305-1.932l0.051-0.957c0.061-1.137-0.813-2.108-1.951-2.166l-13.371-0.676   C104.359-11.017,103.422-10.229,103.291-9.158z"></path><path display="inline" fill="#000000" d="M88.695-5.512L88.695-5.512c-0.903-0.684-1.081-1.97-0.398-2.874l9.172-12.118   c0.72-0.952,2.098-1.09,2.993-0.3l0.74,0.653c0.843,0.744,0.93,2.029,0.194,2.88L91.484-5.806   C90.777-4.988,89.557-4.86,88.695-5.512z"></path><path display="inline" fill="#000000" d="M106.276-8.878L106.276-8.878c0.124,1.13-0.692,2.146-1.821,2.27L91.116-5.147   c-1.185,0.13-2.232-0.771-2.28-1.962l-0.039-0.958c-0.046-1.138,0.84-2.098,1.979-2.14l13.378-0.503   C105.232-10.751,106.159-9.951,106.276-8.878z"></path></g><path d="M99.637-31.622c0,3.665-3.21,6.905-5.03,6.905s-5.03-3.241-5.03-6.905s2.252-5.352,5.03-5.352S99.637-35.287,99.637-31.622z  "></path><path d="M110.362-11.046l-7.347-10.629c-1.512-2.194-7.574-1.775-8.331-1.775c-0.769,0-6.249-0.65-7.707,1.255l-7.885,11.198  c-0.649,0.916-0.48,2.221,0.377,2.915c0.509,0.412,1.15,0.516,1.723,0.337c0.185,0.037,6.43-0.652,6.43-0.652  c0.27,4.719-0.408,7.194-0.719,9.993c-0.084,0.807-0.228,2.67-0.228,2.682C86.603,4.329,70.252,14.59,70.252,14.59  c-0.756,0.45-1.055,1.464-0.982,2.607c0.024,1.926,0.476,4.122,2.866,4.007l20.895-1.606l-0.247,11.533l-1.199,23.323  c-0.061,1.425,0.926,2.632,2.187,2.748c1.26,0.102,2.427-0.924,2.571-2.351c0,0,3.158-23.129,3.171-23.181l2.882-25.865  c0-0.065-0.024-4.122-0.037-4.212c-0.194-2.343-0.906-4.751-0.617-10.166l5.908,0.775c0.197,0.026,1.787,0.066,2.301-0.339  C110.815-8.819,111-10.121,110.362-11.046z M85.869-13.023l1.132-1.4c0.066,0.465,0.126,0.913,0.18,1.348L85.869-13.023z   M93.149,14.307l-4.816-0.09l4.348-1.978c0.012-0.012,0.024-0.012,0.024-0.012c0.156,0.039,0.324,0.09,0.493,0.116L93.149,14.307z   M102.173-13.243c0.059-0.481,0.125-0.981,0.197-1.498l1.241,1.575L102.173-13.243z"></path></svg>