<svg xmlns="http://www.w3.org/2000/svg" xmlns:xlink="http://www.w3.org/1999/xlink" version="1.1" x="0px" y="0px" viewBox="0 0 100 100" enable-background="new 0 0 100 100" xml:space="preserve"><path d="M95,57.049c-0.023,1.493-1.231,2.701-2.724,2.724L58.69,60.354c-4.938-0.395-7.285-4.229-6.332-6.691  c0.212-0.546-1.42-0.818-1.954-0.577l-17.072,7.645c-0.935,0.558-26.155-0.422-26.155-0.422C5.969,60.275,5.012,59.295,5,58.086  c-0.023-1.208,0.923-2.211,2.131-2.268l23.044-1.128c0.091,0,0.171,0.011,0.262,0.023l14.531-10.405  c1.524-2.418,5.013-5.544,10.204-5.182c10.997,0.768,26.022-0.029,32.29,3.419c6.194,3.407,4.069,10.685,1.709,11.118l2.944,0.457  C93.609,54.2,95.022,55.556,95,57.049z"></path><path d="M30.098,53.554l12.841-9.195c-1.636-2.031-4.141-3.333-6.952-3.333c-4.93,0-8.927,3.997-8.927,8.927  c0,1.325,0.297,2.579,0.815,3.71L30.098,53.554z"></path></svg>