<svg xmlns="http://www.w3.org/2000/svg" xmlns:xlink="http://www.w3.org/1999/xlink" version="1.1" x="0px" y="0px" viewBox="-429 231 100 100" enable-background="new -429 231 100 100" xml:space="preserve"><path d="M-376.608,299.285c0.311-1.605-0.039-3.267-0.969-4.611c-3.186-4.602-2.441-11.442-1.142-14.225l1.071-2.099  c1.27-3.811,0.878-7.482-2.045-10.238l-1.31-1.138l-2.354-14.26c0,0,0.845-1.649,0.382-4.245  c-0.598-3.353-1.251-13.567-1.251-13.567c-0.142-0.817-0.85-1.402-1.679-1.402c-1.016,0-1.806,0.797-1.693,1.807l-0.583,17.5  l1.291,23.699c0,0-1.33,6.172-1.848,8.211c-0.749,2.95,0.841,11.391,2.783,13.543c0.934,1.036,4.11,4.642,4.11,4.642l-2.11,11.423  l0.205,12.838c0.012,0.742,0.617,1.337,1.359,1.337c0.711,0,1.301-0.548,1.355-1.256l0.921-12.12L-376.608,299.285z"></path><path d="M-375.009,298.074c-0.167,0-0.33,0.011-0.493,0.025c0.003,0.467-0.039,0.937-0.129,1.402l-2.16,9.753  c0.83,0.441,1.776,0.694,2.782,0.694c3.279,0,5.937-2.658,5.937-5.937C-369.073,300.732-371.732,298.074-375.009,298.074z"></path><g display="none"><path display="inline" d="M-375.009,298.074c-0.518,0-1.018,0.073-1.496,0.198c0.03-1.274-0.336-2.536-1.072-3.598   c-3.186-4.602-2.441-11.442-1.142-14.225l1.071-2.099c1.27-3.811,0.878-7.482-2.045-10.238l-1.31-1.138l-2.354-14.26   c0,0,0.845-1.649,0.382-4.245c-0.598-3.353-1.251-13.567-1.251-13.567c-0.142-0.817-0.85-1.402-1.679-1.402   c-1.016,0-1.806,0.797-1.693,1.807l-0.583,17.5l1.291,23.699c0,0-1.33,6.172-1.848,8.211c-0.749,2.951,0.841,11.391,2.783,13.543   c0.935,1.036,4.11,4.642,4.11,4.642l-2.11,11.423l0.205,12.838c0.012,0.742,0.617,1.337,1.359,1.337   c0.711,0,1.301-0.548,1.355-1.256l0.921-12.12l1.43-6.457c1.012,0.8,2.287,1.281,3.676,1.281c3.279,0,5.937-2.658,5.937-5.937   S-371.731,298.074-375.009,298.074z"></path></g></svg>