<svg xmlns="http://www.w3.org/2000/svg" xmlns:xlink="http://www.w3.org/1999/xlink" version="1.1" x="0px" y="0px" viewBox="-429 231 100 100" enable-background="new -429 231 100 100" xml:space="preserve"><g display="none"><g display="inline"><circle cx="-339.407" cy="266.249" r="7.907"></circle><path d="M-336.684,277.102c0,0-6.073-0.672-6.543-0.703l-11.995-0.794l-17.124-5.568c-0.785-0.295-1.664-0.005-2.01,0.759    c-0.362,0.801-0.007,1.707,0.794,2.069l16.324,7.316l7.45,1.515c-0.505,0.466-0.865,0.6-2.155,1.531L-369,282.202    c-1.092-0.066-2.144,0.619-2.392,1.685c-0.317,1.361,0.631,2.608,1.938,2.74l9.099,0.919c-2.583,0.839-5.48,1.357-8.601,1.168    c-0.088-0.005-21.85-10.404-21.85-10.404l-32.266-9.96c-1.773-0.575-2.428-0.469-3.233,1.036    c-0.835,1.561,1.222,2.751,2.382,3.302l17.848,8.479c2.671,1.269,4.298,3.289,7.247,3.508l3.959,0.293l19.999,15.919    c3.935,3.132,9.344,3.655,13.806,1.335l23.059-12.585c2.385-1.363,3.792-3.651,4.244-6.525    C-333.232,279.75-334.772,277.193-336.684,277.102z"></path></g></g><circle cx="-342.068" cy="266.882" r="7.568"></circle><path d="M-346.332,276.597l-11.48-0.76l-16.389-5.329c-0.751-0.282-1.593-0.005-1.924,0.726c-0.347,0.767-0.006,1.633,0.76,1.98  l15.623,7.002l9.121,0.953c-0.09,0.232-3.567,1.991-3.567,1.991l-16.809-1.009c-1.045-0.063-2.052,0.593-2.289,1.612  c-0.303,1.303,0.604,2.496,1.855,2.622l17.612,1.779l3.96-0.731c0.286,0.385-6.043,1.85-6.043,1.85l-10.343-1.166  c-1.5,0.245-3.069,0.364-4.71,0.265c-0.084-0.005-20.911-9.958-20.911-9.958l-30.882-9.531c-1.697-0.551-2.622-0.587-3.3,0.678  c-0.81,1.511,1.233,2.969,2.344,3.497l16.02,9.295c2.557,1.215,5.316,1.945,8.139,2.154l3.789,0.281l19.141,15.236  c3.766,2.998,8.943,3.498,13.213,1.278l22.068-12.045c2.282-1.304,3.795-3.63,4.062-6.245c0,0,0.266-1.676,0.228-2.237  C-337.419,275.153-345.882,276.626-346.332,276.597z"></path></svg>