<svg xmlns="http://www.w3.org/2000/svg" xmlns:xlink="http://www.w3.org/1999/xlink" version="1.1" x="0px" y="0px" viewBox="0 0 283.46 283.46" enable-background="new 0 0 283.46 283.46" xml:space="preserve"><path d="M268.473,223.463c-0.797-1.185-2.092-1.82-3.515-1.928l-55.187-4.136l2.778-62.812c0.139-3.161-4.433-12.081-5.536-14.621  L179.26,76.013c-22.722-34.046-50.192-27.3-63.288,0.42L66.88,141.934c-1.137,1.514-49.081,65.72-49.081,65.72  c-4.105,5.329-4.807,11.596-1.59,14.201l0,0c3.047,2.466,8.617,0.819,12.946-3.824c0,0,56.204-60.533,56.862-61.579l55.759-55.422  c2.682-2.665,11.182-0.173,11.182-0.173c4.062,17.257,16.22,46.57,16.22,46.57c1.188,3.603,3.776,6.573,7.18,8.246l8.013,3.934  c2.483,1.219,5.352,1.621,8.047,1.29c0,0,3.169,64.13,3.169,64.714v0.108c0,2.574,2.421,4.201,4.995,4.221l64.042,0.541  C268.371,230.512,270.563,226.572,268.473,223.463z"></path><path d="M212.782,214.724l11.857,0.89c6.571-4.192,10.942-11.531,10.942-19.905c0-12.129-9.147-22.11-20.919-23.451L212.782,214.724  z"></path><path d="M190.114,186.755c-1.134,2.764-1.769,5.783-1.769,8.954c0,3.861,0.944,7.492,2.588,10.709  C190.684,200.423,190.4,193.592,190.114,186.755z"></path></svg>